<svg width="791" height="228" viewBox="0 0 791 228" fill="none" xmlns="http://www.w3.org/2000/svg">
<path d="M175.346 8.04133C171.562 6.14925 164.939 3.46881 160.524 2.3651C156.267 1.10372 147.28 4.92089e-06 140.815 4.35574e-06C134.193 3.7768e-06 124.733 1.10372 119.529 2.52278C114.326 3.94183 107.231 7.09527 103.762 9.30268C100.293 11.6678 94.9326 16.398 91.9368 19.7091C88.7833 23.1779 84.5261 29.3272 82.4764 33.4266C79.1653 39.8912 78.0616 40.9949 75.3811 40.0489C73.6467 39.4182 69.7049 38.4722 66.7091 37.8415C63.7133 37.2108 59.1408 37.2108 56.4604 37.8415C53.9376 38.4722 49.3651 41.3102 46.6847 43.833C43.8466 46.5134 40.8508 51.4013 39.9047 54.7125C39.1164 57.8659 38.328 62.1231 38.328 64.1728C38.328 66.0649 37.0666 68.1146 35.6476 68.5876C34.0709 69.0607 31.7057 70.1644 30.4444 70.9527C29.183 71.7411 26.1872 73.1602 23.8221 73.9485C21.2994 74.8946 19.4073 76.629 19.4073 77.8903C19.4073 79.1517 18.1459 80.7285 16.7269 81.3592C15.1501 81.9898 12.6273 83.5666 11.0506 84.9856C9.63152 86.247 8.37017 88.4544 8.37017 89.7158C8.37017 91.2925 9.63152 90.8195 12.6273 87.8237C15.1501 85.6163 19.8803 82.3052 23.3491 80.5708C26.8179 78.6787 32.8095 76.7866 36.7513 76.3136C41.0085 75.5252 47.473 75.9983 52.5185 77.102C57.2488 78.2057 63.871 80.8861 67.1821 82.9359C70.3356 84.828 75.0658 88.9275 77.7462 91.7656C80.269 94.446 82.7917 98.0725 83.2648 99.6492C83.8954 101.857 84.6838 102.014 88.4679 100.753C90.833 99.8069 94.4595 99.3338 96.6669 99.8068C98.8744 100.28 102.028 102.172 106.916 107.06L109.754 100.438C111.33 96.6534 114.957 90.8195 117.795 87.3507C120.633 83.8819 125.994 79.3094 129.936 77.2597C135.612 74.1062 139.081 73.3179 148.699 73.4755C158.948 73.4755 161.786 74.1062 169.196 78.2057C173.927 80.8862 180.864 86.247 184.491 89.8735C188.117 93.6576 192.217 98.2301 193.478 99.9645C194.739 101.699 197.262 107.375 198.997 112.578C200.889 117.939 202.308 125.035 201.677 136.229L193.793 132.445C187.013 129.292 184.175 128.819 175.503 129.607C169.512 130.08 162.889 131.814 159.421 133.707C156.11 135.599 153.429 137.333 153.429 137.806C153.429 138.279 157.529 138.121 162.574 137.648C167.62 137.018 174.873 137.333 179.445 138.437C184.018 139.54 190.64 142.694 203.096 152.47L208.615 146.32C211.61 143.009 216.656 139.54 219.652 138.752C222.647 137.806 227.851 137.018 236.996 137.018L234.788 131.972C233.212 128.188 232.896 124.877 234 119.674C234.788 115.416 236.996 110.844 239.676 108.164C243.46 104.379 244.091 102.172 244.564 93.1846C244.879 86.7201 246.456 79.7824 248.506 75.0523C251.344 68.903 253.394 66.8533 258.755 64.3305C264.115 61.9654 266.481 61.6501 270.895 62.9114C274.049 63.8575 277.991 66.6956 280.198 69.6914C282.248 72.3718 284.455 76.4713 285.086 78.6787C285.717 80.8861 286.82 82.9359 287.293 83.4089C287.924 83.8819 289.028 86.5624 289.974 89.4005C291.235 93.973 292.496 95.0767 299.434 97.2841C304.007 98.7032 309.525 101.699 311.89 103.906C314.255 106.114 317.409 110.686 321.666 120.462L323.558 115.732C324.504 113.209 324.977 108.479 324.819 105.483C324.504 102.487 323.243 98.2301 322.139 96.0227C320.878 93.8153 318.512 90.9772 316.778 89.4005C314.886 87.9814 313.782 86.4047 314.255 85.9317C314.728 85.4587 317.566 84.6703 320.562 84.0396C324.819 83.4089 327.342 84.0396 331.599 86.8777C334.595 88.9275 338.537 93.5 340.114 96.8111C341.69 100.28 343.109 106.114 343.267 109.74C343.425 113.524 343.74 116.52 344.213 116.52C344.686 116.52 345.79 115.732 346.578 114.786C347.524 113.84 353.201 113.367 361.557 113.682C372.121 114.155 376.378 115.101 381.897 118.097C385.839 120.304 389.15 122.985 389.465 124.089C389.781 125.035 388.362 126.296 386.469 126.769C384.42 127.084 378.743 129.607 373.856 132.287C368.81 134.81 364.711 137.648 364.711 138.594C364.711 139.54 368.968 140.171 374.171 140.171C379.847 140.171 386.942 141.432 391.988 143.325C396.403 145.059 400.345 146.478 400.66 146.478C400.818 146.478 401.291 144.901 401.606 143.009C402.079 140.644 404.602 138.279 409.174 136.229C412.958 134.495 418.792 133.076 422.261 133.234C426.991 133.234 429.514 132.13 432.51 129.134C434.717 126.927 438.344 124.246 440.867 123.142C443.232 122.039 447.016 121.25 449.539 121.25C451.904 121.25 456.161 122.669 458.999 124.404C461.995 126.296 465.306 130.395 467.198 134.653C469.09 138.91 469.878 143.167 469.405 145.374C468.459 148.212 468.617 148.528 470.509 146.951C471.77 145.847 477.762 143.798 483.754 142.536C489.903 141.275 496.998 140.171 499.521 140.171C502.201 140.171 505.355 140.959 506.616 141.748C508.666 143.009 508.508 143.325 506.301 143.325C504.724 143.325 501.886 144.271 499.994 145.374C498.102 146.32 494.948 149.001 493.056 151.208C491.164 153.416 489.587 155.308 489.745 155.465C489.903 155.623 494.002 154.677 498.732 153.416C503.463 152.154 513.081 151.208 520.018 151.366C531.055 151.524 534.051 150.893 543.669 146.478C551.868 142.694 557.702 141.117 566.532 140.644C573.469 140.171 582.299 140.644 587.818 141.748C593.967 143.167 599.643 145.69 604.058 149.158C607.684 151.997 611.153 154.046 611.941 153.573C612.572 153.1 612.257 149.789 609.261 139.383L621.402 140.329C630.232 140.96 635.908 142.379 650.887 149.947L659.559 147.266C666.023 145.217 671.069 144.744 679.268 145.374C685.417 145.847 693.931 147.739 698.189 149.474C703.707 151.681 710.487 152.627 721.051 152.943C729.25 153.1 742.022 152.312 749.432 151.366C756.843 150.42 768.195 148.685 774.66 147.739C781.124 146.793 787.431 145.532 788.377 145.059C789.796 144.428 789.323 142.536 786.485 138.279C784.278 134.968 781.282 132.13 779.863 132.13C778.286 131.972 766.461 131.814 753.374 131.657C729.956 131.5 729.568 131.342 714.887 125.408L714.744 125.35C706.545 122.039 696.612 118.412 692.67 117.151C688.728 116.047 681.002 114.943 675.326 114.943C667.915 114.943 662.87 116.047 657.194 118.57C652.936 120.62 648.206 123.616 646.945 125.35C645.683 127.242 643.476 128.976 642.215 129.449C640.796 129.765 638.115 128.03 635.908 125.35C633.7 122.827 629.601 119.831 626.92 118.57C624.082 117.466 618.406 116.52 614.307 116.52C610.049 116.52 603.743 117.939 593.336 122.827L586.714 116.836C582.93 113.524 576.465 109.11 572.05 107.06C565.901 104.064 561.644 103.118 553.13 103.118C544.615 103.118 540.516 103.906 534.997 106.745C531.055 108.794 525.695 112.736 522.856 115.417C520.176 118.255 517.653 119.831 517.338 118.885C517.18 117.939 514.027 115.417 510.558 113.051C507.089 110.686 500.467 107.218 496.052 105.483C491.48 103.749 483.596 101.857 478.708 101.384C472.716 100.911 466.883 101.384 461.679 102.96C457.422 104.222 452.692 104.852 451.431 104.222C449.539 103.433 449.381 103.749 450.642 105.483C451.746 107.218 451.746 107.533 450.169 106.745C449.223 105.956 448.277 103.591 448.277 101.226C448.277 98.7032 447.489 95.5498 446.385 94.1307C445.281 92.554 441.497 90.3465 438.028 89.0852C434.56 87.8238 431.091 87.1931 430.302 87.8238C429.514 88.4545 429.514 86.5624 430.302 83.4089C431.091 80.4131 431.564 75.3676 431.564 72.3718C431.564 69.376 431.091 64.1729 430.46 61.0194C429.829 57.5506 426.991 52.3474 423.838 48.7209C420.842 45.2521 418.004 42.887 417.531 43.6754C417.058 44.3061 416.427 43.5177 415.954 42.0987C415.481 40.522 414.535 39.5759 413.589 40.0489C412.801 40.5219 412.012 40.2066 412.012 39.2605C412.012 38.3145 410.909 37.9992 409.647 38.4722C408.386 38.9452 407.282 38.7875 407.282 38.1569C407.282 37.3685 406.021 36.7378 404.602 36.5801C403.025 36.4225 397.98 36.1071 393.407 35.7918C388.677 35.4764 384.577 35.7918 384.262 36.5801C383.947 37.2108 382.37 37.6838 380.951 37.6838C379.374 37.6838 373.856 39.5759 368.652 41.7833C363.449 43.9907 358.246 46.1982 356.985 46.8289C355.881 47.4595 355.093 47.3018 355.25 46.3558C355.566 45.4098 354.935 42.5717 353.831 40.0489C352.727 37.5261 350.047 33.4267 347.682 30.9039C345.317 28.5388 340.902 25.8583 337.906 24.9123C334.91 23.9663 330.338 23.6509 327.658 24.1239C325.135 24.7546 320.247 27.1198 317.093 29.4848C313.782 31.8499 311.733 34.3727 312.363 35.0034C312.994 35.7918 312.206 35.9494 310.787 35.4764C309.21 35.0034 307.633 33.269 307.16 31.8499C306.845 30.2732 304.322 27.1198 301.642 24.7547C299.119 22.2319 294.231 18.7631 291.077 16.871C286.505 14.3483 282.248 13.5599 273.26 13.4022C263.485 13.2445 259.858 14.0329 252.763 17.5017C247.56 19.8668 242.041 24.2816 239.045 28.0657C236.207 31.6922 233.842 35.0034 233.842 35.7918C233.842 36.4224 232.896 38.3145 231.635 40.0489C229.427 43.2023 229.27 43.2024 225.643 39.7336C223.594 37.8415 219.494 35.7917 216.498 35.4764C213.029 34.8457 209.718 35.4764 207.826 36.8954C206.092 38.1568 204.042 39.2605 203.096 39.2605C202.308 39.2605 199.785 35.7917 197.578 31.2192C195.37 26.8044 191.113 20.6552 187.959 17.5017C184.806 14.1906 179.13 10.0911 175.346 8.04133Z" fill="white"/>
<path d="M258.268 64.4882C261.737 62.9114 265.363 61.4924 266.152 61.4924C267.098 61.4924 270.093 62.5961 272.774 63.6998C275.454 64.8035 279.081 67.7993 280.815 70.3221C282.55 72.8448 284.442 76.629 285.072 78.8364C285.861 80.8861 286.807 83.0936 287.437 83.5666C288.068 83.8819 289.172 86.72 289.96 89.5581C291.222 93.973 292.641 95.2343 299.578 97.4418C303.993 98.8608 309.512 101.857 312.034 104.064C314.4 106.114 317.553 110.844 318.972 114.313L321.81 120.62C324.491 113.209 325.121 108.637 324.806 105.641C324.491 102.487 323.387 98.2301 322.125 96.1804C321.022 93.973 318.499 90.9772 316.765 89.5581C315.03 88.1391 313.927 86.5624 314.242 86.0894C314.715 85.6163 317.868 84.6703 321.179 84.1973C326.225 83.4089 328.275 84.0396 332.217 87.0354C334.897 89.0851 338.523 93.5 340.1 96.9688C341.835 100.438 343.254 106.271 343.254 109.898C343.411 113.682 343.884 116.678 344.2 116.678C344.673 116.678 345.776 115.889 346.565 114.943C347.668 113.84 353.187 113.524 361.544 113.84C372.108 114.313 376.523 115.259 382.041 118.255C385.825 120.462 389.136 122.985 389.452 124.089C389.767 125.192 388.348 126.454 386.456 126.769C384.564 127.242 378.888 129.765 373.842 132.287C368.797 134.968 364.697 137.806 364.697 138.752C364.697 139.54 368.954 140.329 374.157 140.329C379.834 140.329 387.087 141.59 391.975 143.482C396.547 145.217 400.489 146.636 400.647 146.636C400.804 146.636 401.277 145.059 401.75 143.009C402.223 140.644 404.746 138.437 409.161 136.387C412.945 134.653 418.779 133.234 422.248 133.234C426.978 133.234 429.658 132.287 432.496 129.292C434.704 127.084 438.488 124.404 440.853 123.3C443.218 122.196 447.16 121.408 449.525 121.408C451.89 121.408 456.147 122.827 458.985 124.562C461.981 126.454 465.292 130.553 467.184 134.81C469.234 139.067 470.023 143.325 469.392 145.374C468.603 148.37 468.761 148.685 470.496 146.951C471.757 146.005 477.748 143.955 483.74 142.694C489.889 141.432 496.985 140.329 499.507 140.329C502.188 140.329 505.341 140.959 506.603 141.906C508.652 143.167 508.652 143.325 506.287 143.482C504.711 143.482 502.03 144.271 500.138 145.374C498.246 146.478 495.092 149.158 493.043 151.366C491.151 153.416 489.732 155.465 489.889 155.623C490.047 155.781 493.989 154.835 498.719 153.573C503.607 152.312 513.067 151.366 520.005 151.524C531.2 151.524 534.038 151.051 543.656 146.478C551.855 142.852 557.846 141.275 566.518 140.644C573.456 140.171 582.286 140.802 587.804 141.906C593.953 143.325 599.63 145.847 604.044 149.158C607.671 152.154 611.297 154.046 611.928 153.731C612.559 153.258 612.243 149.789 611.14 146.163L609.248 139.54C630.218 141.117 635.894 142.536 642.201 145.69L650.873 150.105C666.01 145.217 671.055 144.744 679.254 145.532C685.404 146.005 693.918 147.897 698.175 149.474C703.536 151.681 710.631 152.785 720.249 152.943C728.133 153.258 741.535 152.47 750.207 151.366C758.879 150.262 771.335 148.528 777.8 147.266C784.422 146.163 789.941 145.532 790.098 145.847C790.256 146.005 786.472 147.582 781.426 149.001C776.381 150.42 764.871 153.258 755.726 155.308C746.738 157.357 731.129 160.196 721.038 161.615C708.108 163.507 696.598 164.137 680.831 163.507C659.703 162.876 658.441 163.034 650.873 166.818C646.616 168.868 639.521 171.706 635.106 172.809C630.849 173.913 623.596 175.017 619.023 175.017C614.451 175.017 607.356 173.913 603.256 172.494C596.161 170.129 595.688 170.129 594.269 172.809C593.48 174.386 590.169 178.486 587.173 181.797C584.02 185.108 579.132 188.577 575.979 189.523C572.983 190.469 567.307 191.099 563.365 191.099C558.635 190.994 552.853 189.155 546.021 185.581L535.772 180.22C508.337 195.83 506.76 196.303 496.354 196.303C487.84 196.145 483.582 195.357 477.591 192.361C473.334 190.153 467.342 185.896 464.504 182.9C461.508 179.747 457.724 174.701 455.99 171.39C452.994 165.556 452.994 165.556 447.948 167.764C445.11 168.868 439.907 170.444 436.438 170.917C432.969 171.548 426.19 171.233 421.144 170.287C416.098 169.498 409.003 167.291 405.377 165.556C401.75 163.822 398.439 162.403 398.281 162.403C398.124 162.403 397.493 164.61 396.862 167.449C396.389 170.287 394.34 175.49 392.448 178.959C390.398 182.427 385.983 187.158 382.672 189.365C379.361 191.73 372.738 194.726 367.851 196.145C363.12 197.564 353.975 198.668 347.353 198.668C340.889 198.51 331.27 197.406 326.067 196.145C320.864 194.726 312.823 191.415 307.935 188.892C303.205 186.212 297.686 182.743 295.794 181.008C292.325 178.17 292.168 178.17 284.757 182.112C278.135 185.739 275.77 186.212 265.363 185.581C258.899 185.266 252.434 184.477 250.857 183.846C248.65 183.058 247.389 184.319 245.181 189.523C243.604 193.307 239.82 198.983 236.982 202.452C233.986 205.763 227.837 210.966 223.265 213.804C218.692 216.8 209.705 220.9 203.083 223.107C194.568 225.945 187.946 227.049 179.116 227.049C172.336 227.049 163.034 225.945 158.146 224.526C153.416 223.107 145.217 219.638 140.013 216.8C134.81 213.962 126.927 207.813 122.512 203.083C117.939 198.352 113.524 191.888 112.263 188.104C110.371 182.112 109.74 181.639 106.902 183.216C105.168 184.004 98.8608 184.635 92.7116 184.319C84.0396 183.846 80.0978 182.743 75.3676 179.589C71.4258 177.067 67.7992 172.809 65.5918 168.237C63.6998 164.137 61.9654 158.619 61.9654 156.096C61.9654 153.416 61.8077 151.366 61.65 151.366C61.4924 151.208 58.8119 152.47 55.6585 153.889C51.7167 155.781 47.6172 156.254 40.6796 155.781C35.4764 155.308 27.7504 153.416 23.3356 151.524C19.0784 149.631 13.5599 146.163 11.1948 143.798C8.67199 141.432 5.20318 135.599 3.4688 130.868C1.26135 125.192 0.157649 118.097 -4.2731e-06 110.371C-3.4874e-06 101.384 0.788327 96.8111 3.15344 91.4502C5.04553 87.5084 8.82965 81.9898 11.8254 79.3094C14.6636 76.6289 19.8668 72.8448 23.3356 71.1104C26.8044 69.376 31.8499 67.3262 34.3727 66.6955C37.9991 65.9072 38.7875 66.0649 37.9991 67.4839C37.3684 68.4299 35.634 69.376 34.0573 69.2183C32.4806 69.2183 30.2732 70.322 28.8541 71.5834C27.5928 73.0025 24.9123 74.4215 23.0202 74.8946C21.1281 75.3676 19.3937 76.629 19.3937 78.048C19.3937 79.3094 18.29 80.8861 16.7133 81.5168C15.1366 82.1475 12.6138 83.7242 11.1948 84.9856C9.61804 86.4047 8.35669 88.4544 8.35669 89.8735C8.35669 91.4502 9.61804 90.9772 12.7715 87.9814C15.1366 85.6163 19.8668 82.3052 23.3356 80.5708C26.8044 78.8364 32.9536 76.9443 36.7378 76.3136C40.9949 75.6829 47.4595 76.1559 52.5051 77.2596C57.3929 78.3634 63.8575 80.8861 67.1686 82.9359C70.4797 84.9856 75.2099 88.9275 77.7327 91.7656C80.4131 94.6037 82.7782 98.2301 83.2512 99.6492C84.0396 102.014 84.8279 102.172 88.4544 100.753C90.8195 99.9645 94.6037 99.4915 96.6534 99.9645C98.8608 100.438 102.014 102.33 103.749 104.064L106.902 107.217C111.475 96.8111 114.943 90.9772 117.782 87.5084C120.62 84.0396 126.138 79.4671 129.922 77.2597C135.599 74.2639 139.067 73.4755 148.685 73.4755C158.934 73.6332 161.772 74.2639 169.183 78.3634C174.071 81.0438 180.851 86.247 184.635 90.0312C188.261 93.8153 192.203 98.3878 193.464 100.122C194.726 101.857 197.249 107.533 199.141 112.736C201.033 118.097 202.294 125.192 202.136 129.292L201.821 136.387C187 129.449 184.162 128.976 175.49 129.607C169.498 130.238 162.876 131.814 159.407 133.864C156.096 135.599 153.416 137.491 153.416 137.964C153.416 138.279 157.515 138.279 162.561 137.648C167.764 137.175 175.017 137.491 179.432 138.594C184.162 139.698 190.626 142.852 195.199 146.478L203.083 152.47C211.755 143.167 216.642 139.698 219.638 138.752C222.792 137.964 227.837 137.175 231.148 137.175L236.982 137.175C233.198 128.188 233.04 125.035 233.986 119.831C234.775 115.416 237.14 111.002 239.663 108.321C243.447 104.379 244.235 102.33 244.708 93.3423C245.023 86.72 246.443 79.7824 248.65 75.0523C251.173 69.376 253.538 66.8532 258.268 64.4882Z" fill="#FFC3C2"/>
<path d="M743.9 131.972C739.643 131.657 742.796 131.341 750.995 131.341C759.352 131.341 762.821 131.657 758.879 131.972C755.095 132.288 748.315 132.288 743.9 131.972Z" fill="#FFC3C2"/>
</svg>
