<svg width="791" height="228" viewBox="0 0 791 228" fill="none" xmlns="http://www.w3.org/2000/svg">
<path d="M614.757 8.04127C618.542 6.14919 625.164 3.46875 629.579 2.36504C633.836 1.10365 642.823 -5.61143e-05 649.288 -5.66794e-05C655.91 -5.72584e-05 665.37 1.10366 670.574 2.52272C675.777 3.94177 682.872 7.09521 686.341 9.30262C689.81 11.6677 695.17 16.3979 698.166 19.709C701.32 23.1778 705.577 29.3271 707.627 33.4266C710.938 39.8912 712.041 40.9948 714.722 40.0488C716.456 39.4181 720.398 38.4721 723.394 37.8414C726.39 37.2107 730.962 37.2107 733.643 37.8414C736.165 38.4721 740.738 41.3102 743.418 43.8329C746.256 46.5134 749.252 51.4013 750.198 54.7124C750.987 57.8659 751.775 62.123 751.775 64.1728C751.775 66.0648 753.036 68.1146 754.455 68.5876C756.032 69.0606 758.397 70.1643 759.659 70.9527C760.92 71.741 763.916 73.1601 766.281 73.9485C768.804 74.8945 770.696 76.6289 770.696 77.8903C770.696 79.1517 771.957 80.7284 773.376 81.3591C774.953 81.9898 777.476 83.5665 779.052 84.9856C780.472 86.2469 781.733 88.4543 781.733 89.7157C781.733 91.2925 780.472 90.8195 777.476 87.8237C774.953 85.6163 770.223 82.3051 766.754 80.5707C763.285 78.6787 757.294 76.7866 753.352 76.3135C749.095 75.5252 742.63 75.9982 737.584 77.1019C732.854 78.2056 726.232 80.8861 722.921 82.9358C719.767 84.8279 715.037 88.9274 712.357 91.7655C709.834 94.446 707.311 98.0724 706.838 99.6492C706.208 101.857 705.419 102.014 701.635 100.753C699.27 99.8068 695.644 99.3338 693.436 99.8068C691.229 100.28 688.075 102.172 683.187 107.06L680.349 100.438C678.773 96.6534 675.146 90.8195 672.308 87.3506C669.47 83.8818 664.109 79.3093 660.167 77.2596C654.491 74.1061 651.022 73.3178 641.404 73.4755C631.155 73.4755 628.317 74.1062 620.907 78.2056C616.176 80.8861 609.239 86.247 605.612 89.8734C601.986 93.6576 597.886 98.2301 596.625 99.9645C595.364 101.699 592.841 107.375 591.106 112.578C589.214 117.939 587.795 125.034 588.426 136.229L596.31 132.445C603.09 129.292 605.928 128.819 614.6 129.607C620.591 130.08 627.214 131.814 630.682 133.706C633.993 135.599 636.674 137.333 636.674 137.806C636.674 138.279 632.574 138.121 627.529 137.648C622.483 137.018 615.23 137.333 610.658 138.437C606.085 139.54 599.463 142.694 587.007 152.47L581.488 146.32C578.493 143.009 573.447 139.54 570.451 138.752C567.456 137.806 562.252 137.018 553.107 137.018L555.315 131.972C556.891 128.188 557.207 124.877 556.103 119.674C555.315 115.416 553.107 110.844 550.427 108.163C546.643 104.379 546.012 102.172 545.539 93.1846C545.224 86.72 543.647 79.7824 541.597 75.0522C538.759 68.903 536.709 66.8532 531.349 64.3304C525.988 61.9653 523.623 61.65 519.208 62.9114C516.054 63.8574 512.112 66.6956 509.905 69.6913C507.855 72.3718 505.648 76.4712 505.017 78.6787C504.386 80.8861 503.283 82.9358 502.81 83.4088C502.179 83.8819 501.075 86.5623 500.129 89.4004C498.868 93.9729 497.607 95.0767 490.669 97.2841C486.096 98.7031 480.578 101.699 478.213 103.906C475.848 106.114 472.694 110.686 468.437 120.462L466.545 115.732C465.599 113.209 465.126 108.479 465.284 105.483C465.599 102.487 466.86 98.2301 467.964 96.0227C469.225 93.8153 471.591 90.9772 473.325 89.4004C475.217 87.9814 476.321 86.4046 475.848 85.9316C475.375 85.4586 472.537 84.6702 469.541 84.0395C465.284 83.4088 462.761 84.0396 458.504 86.8777C455.508 88.9274 451.566 93.4999 449.989 96.811C448.413 100.28 446.994 106.114 446.836 109.74C446.678 113.524 446.363 116.52 445.89 116.52C445.417 116.52 444.313 115.732 443.525 114.786C442.579 113.84 436.903 113.367 428.546 113.682C417.982 114.155 413.725 115.101 408.206 118.097C404.264 120.304 400.953 122.985 400.638 124.088C400.322 125.034 401.741 126.296 403.634 126.769C405.683 127.084 411.36 129.607 416.247 132.287C421.293 134.81 425.392 137.648 425.392 138.594C425.392 139.54 421.135 140.171 415.932 140.171C410.256 140.171 403.161 141.432 398.115 143.325C393.7 145.059 389.758 146.478 389.443 146.478C389.285 146.478 388.812 144.901 388.497 143.009C388.024 140.644 385.501 138.279 380.929 136.229C377.145 134.495 371.311 133.076 367.842 133.233C363.112 133.233 360.589 132.13 357.593 129.134C355.386 126.927 351.759 124.246 349.236 123.142C346.871 122.039 343.087 121.25 340.564 121.25C338.199 121.25 333.942 122.669 331.104 124.404C328.108 126.296 324.797 130.395 322.905 134.653C321.013 138.91 320.225 143.167 320.698 145.374C321.644 148.212 321.486 148.528 319.594 146.951C318.333 145.847 312.341 143.798 306.349 142.536C300.2 141.275 293.105 140.171 290.582 140.171C287.902 140.171 284.748 140.959 283.487 141.748C281.437 143.009 281.595 143.325 283.802 143.325C285.379 143.325 288.217 144.271 290.109 145.374C292.001 146.32 295.155 149.001 297.047 151.208C298.939 153.416 300.516 155.308 300.358 155.465C300.2 155.623 296.101 154.677 291.371 153.416C286.64 152.154 277.022 151.208 270.085 151.366C259.048 151.524 256.052 150.893 246.434 146.478C238.235 142.694 232.401 141.117 223.571 140.644C216.634 140.171 207.804 140.644 202.285 141.748C196.136 143.167 190.46 145.69 186.045 149.158C182.419 151.997 178.95 154.046 178.162 153.573C177.531 153.1 177.846 149.789 180.842 139.383L168.701 140.329C159.871 140.959 154.195 142.379 139.216 149.947L130.544 147.266C124.08 145.217 119.034 144.744 110.835 145.374C104.686 145.847 96.1717 147.739 91.9145 149.474C86.396 151.681 79.616 152.627 69.052 152.943C60.853 153.1 48.0815 152.312 40.6709 151.366C33.2603 150.42 21.9078 148.685 15.4432 147.739C8.97865 146.793 2.67173 145.532 1.7257 145.059C0.306643 144.428 0.779661 142.536 3.61777 138.279C5.82519 134.968 8.82097 132.13 10.24 132.13C11.8168 131.972 23.6422 131.814 36.729 131.657C60.1466 131.5 60.5354 131.342 75.216 125.408L75.3589 125.35C83.5579 122.039 93.4912 118.412 97.4331 117.151C101.375 116.047 109.101 114.943 114.777 114.943C122.188 114.943 127.233 116.047 132.909 118.57C137.167 120.62 141.897 123.615 143.158 125.35C144.42 127.242 146.627 128.976 147.888 129.449C149.307 129.765 151.988 128.03 154.195 125.35C156.403 122.827 160.502 119.831 163.183 118.57C166.021 117.466 171.697 116.52 175.796 116.52C180.054 116.52 186.36 117.939 196.767 122.827L203.389 116.836C207.173 113.524 213.638 109.11 218.053 107.06C224.202 104.064 228.459 103.118 236.973 103.118C245.488 103.118 249.587 103.906 255.106 106.744C259.048 108.794 264.409 112.736 267.247 115.416C269.927 118.255 272.45 119.831 272.765 118.885C272.923 117.939 276.076 115.416 279.545 113.051C283.014 110.686 289.636 107.217 294.051 105.483C298.624 103.749 306.507 101.857 311.395 101.384C317.387 100.911 323.22 101.384 328.424 102.96C332.681 104.222 337.411 104.852 338.672 104.222C340.564 103.433 340.722 103.749 339.461 105.483C338.357 107.217 338.357 107.533 339.934 106.744C340.88 105.956 341.826 103.591 341.826 101.226C341.826 98.7031 342.614 95.5497 343.718 94.1306C344.822 92.5539 348.606 90.3465 352.075 89.0851C355.543 87.8237 359.012 87.193 359.801 87.8237C360.589 88.4544 360.589 86.5623 359.801 83.4089C359.012 80.4131 358.539 75.3675 358.539 72.3718C358.539 69.376 359.012 64.1728 359.643 61.0194C360.274 57.5506 363.112 52.3473 366.265 48.7208C369.261 45.252 372.099 42.887 372.572 43.6753C373.045 44.306 373.676 43.5177 374.149 42.0986C374.622 40.5219 375.568 39.5758 376.514 40.0488C377.302 40.5219 378.091 40.2065 378.091 39.2605C378.091 38.3144 379.194 37.9991 380.456 38.4721C381.717 38.9451 382.821 38.7875 382.821 38.1568C382.821 37.3684 384.082 36.7377 385.501 36.5801C387.078 36.4224 392.123 36.1071 396.696 35.7917C401.426 35.4764 405.526 35.7917 405.841 36.5801C406.156 37.2108 407.733 37.6837 409.152 37.6837C410.729 37.6837 416.247 39.5758 421.451 41.7833C426.654 43.9907 431.857 46.1981 433.118 46.8288C434.222 47.4595 435.01 47.3018 434.853 46.3557C434.537 45.4097 435.168 42.5716 436.272 40.0488C437.376 37.5261 440.056 33.4266 442.421 30.9038C444.786 28.5387 449.201 25.8583 452.197 24.9122C455.193 23.9662 459.765 23.6509 462.445 24.1239C464.968 24.7546 469.856 27.1197 473.01 29.4848C476.321 31.8499 478.37 34.3726 477.74 35.0033C477.109 35.7917 477.897 35.9494 479.317 35.4763C480.893 35.0033 482.47 33.2689 482.943 31.8499C483.258 30.2731 485.781 27.1197 488.461 24.7546C490.984 22.2318 495.872 18.763 499.026 16.871C503.598 14.3482 507.855 13.5598 516.843 13.4021C526.618 13.2445 530.245 14.0328 537.34 17.5016C542.543 19.8667 548.062 24.2815 551.058 28.0657C553.896 31.6922 556.261 35.0033 556.261 35.7917C556.261 36.4224 557.207 38.3144 558.468 40.0488C560.676 43.2023 560.833 43.2023 564.46 39.7335C566.51 37.8414 570.609 35.7917 573.605 35.4763C577.074 34.8456 580.385 35.4763 582.277 36.8954C584.011 38.1568 586.061 39.2605 587.007 39.2605C587.795 39.2605 590.318 35.7917 592.526 31.2191C594.733 26.8043 598.99 20.6551 602.144 17.5016C605.297 14.1905 610.973 10.091 614.757 8.04127Z" fill="white"/>
<path d="M531.835 64.4881C528.366 62.9114 524.74 61.4923 523.951 61.4923C523.005 61.4923 520.01 62.596 517.329 63.6997C514.649 64.8035 511.022 67.7993 509.288 70.322C507.553 72.8448 505.661 76.6289 505.031 78.8363C504.242 80.8861 503.296 83.0935 502.666 83.5665C502.035 83.8819 500.931 86.72 500.143 89.5581C498.881 93.9729 497.462 95.2343 490.525 97.4417C486.11 98.8608 480.591 101.857 478.069 104.064C475.703 106.114 472.55 110.844 471.131 114.313L468.293 120.62C465.612 113.209 464.982 108.637 465.297 105.641C465.612 102.487 466.716 98.2301 467.978 96.1804C469.081 93.9729 471.604 90.9771 473.338 89.5581C475.073 88.139 476.177 86.5623 475.861 86.0893C475.388 85.6163 472.235 84.6702 468.924 84.1972C463.878 83.4088 461.828 84.0396 457.887 87.0354C455.206 89.0851 451.58 93.4999 450.003 96.9687C448.268 100.438 446.849 106.271 446.849 109.898C446.692 113.682 446.219 116.678 445.903 116.678C445.43 116.678 444.327 115.889 443.538 114.943C442.435 113.84 436.916 113.524 428.559 113.84C417.995 114.313 413.58 115.259 408.062 118.255C404.278 120.462 400.967 122.985 400.651 124.088C400.336 125.192 401.755 126.454 403.647 126.769C405.539 127.242 411.215 129.765 416.261 132.287C421.306 134.968 425.406 137.806 425.406 138.752C425.406 139.54 421.149 140.329 415.946 140.329C410.269 140.329 403.016 141.59 398.129 143.482C393.556 145.217 389.614 146.636 389.457 146.636C389.299 146.636 388.826 145.059 388.353 143.009C387.88 140.644 385.357 138.437 380.942 136.387C377.158 134.653 371.324 133.233 367.855 133.233C363.125 133.233 360.445 132.287 357.607 129.292C355.399 127.084 351.615 124.404 349.25 123.3C346.885 122.196 342.943 121.408 340.578 121.408C338.213 121.408 333.956 122.827 331.118 124.561C328.122 126.454 324.811 130.553 322.919 134.81C320.869 139.067 320.08 143.325 320.711 145.374C321.5 148.37 321.342 148.685 319.607 146.951C318.346 146.005 312.355 143.955 306.363 142.694C300.214 141.432 293.118 140.329 290.596 140.329C287.915 140.329 284.762 140.959 283.5 141.905C281.451 143.167 281.451 143.325 283.816 143.482C285.392 143.482 288.073 144.271 289.965 145.374C291.857 146.478 295.011 149.158 297.06 151.366C298.952 153.416 300.371 155.465 300.214 155.623C300.056 155.781 296.114 154.835 291.384 153.573C286.496 152.312 277.036 151.366 270.098 151.524C258.903 151.524 256.065 151.05 246.447 146.478C238.248 142.851 232.257 141.275 223.585 140.644C216.647 140.171 207.817 140.802 202.299 141.905C196.15 143.325 190.473 145.847 186.059 149.158C182.432 152.154 178.806 154.046 178.175 153.731C177.544 153.258 177.86 149.789 178.963 146.163L180.855 139.54C159.885 141.117 154.209 142.536 147.902 145.69L139.23 150.104C124.093 145.217 119.048 144.744 110.849 145.532C104.699 146.005 96.1852 147.897 91.928 149.474C86.5671 151.681 79.4718 152.785 69.8538 152.943C61.9702 153.258 48.568 152.47 39.896 151.366C31.224 150.262 18.7678 148.528 12.3032 147.266C5.68098 146.163 0.162432 145.532 0.00475922 145.847C-0.152914 146.005 3.63123 147.582 8.67676 149.001C13.7223 150.42 25.2324 153.258 34.3774 155.308C43.3648 157.357 58.9744 160.196 69.0654 161.615C81.9946 163.507 93.5047 164.137 109.272 163.507C130.4 162.876 131.662 163.034 139.23 166.818C143.487 168.868 150.582 171.706 154.997 172.809C159.254 173.913 166.507 175.017 171.08 175.017C175.652 175.017 182.748 173.913 186.847 172.494C193.942 170.129 194.415 170.129 195.834 172.809C196.623 174.386 199.934 178.486 202.93 181.797C206.083 185.108 210.971 188.577 214.124 189.523C217.12 190.469 222.796 191.099 226.738 191.099C231.468 190.994 237.25 189.155 244.082 185.581L254.331 180.22C281.766 195.83 283.343 196.303 293.749 196.303C302.263 196.145 306.521 195.357 312.512 192.361C316.769 190.153 322.761 185.896 325.599 182.9C328.595 179.747 332.379 174.701 334.113 171.39C337.109 165.556 337.109 165.556 342.155 167.764C344.993 168.868 350.196 170.444 353.665 170.917C357.134 171.548 363.914 171.233 368.959 170.287C374.005 169.498 381.1 167.291 384.726 165.556C388.353 163.822 391.664 162.403 391.822 162.403C391.979 162.403 392.61 164.61 393.241 167.448C393.714 170.287 395.763 175.49 397.655 178.959C399.705 182.427 404.12 187.158 407.431 189.365C410.742 191.73 417.365 194.726 422.252 196.145C426.983 197.564 436.128 198.668 442.75 198.668C449.214 198.51 458.833 197.406 464.036 196.145C469.239 194.726 477.28 191.415 482.168 188.892C486.898 186.211 492.417 182.743 494.309 181.008C497.778 178.17 497.935 178.17 505.346 182.112C511.968 185.738 514.333 186.212 524.74 185.581C531.204 185.265 537.669 184.477 539.246 183.846C541.453 183.058 542.714 184.319 544.922 189.523C546.499 193.307 550.283 198.983 553.121 202.452C556.117 205.763 562.266 210.966 566.838 213.804C571.411 216.8 580.398 220.9 587.021 223.107C595.535 225.945 602.157 227.049 610.987 227.049C617.767 227.049 627.069 225.945 631.957 224.526C636.687 223.107 644.886 219.638 650.09 216.8C655.293 213.962 663.176 207.813 667.591 203.082C672.164 198.352 676.579 191.888 677.84 188.104C679.732 182.112 680.363 181.639 683.201 183.216C684.935 184.004 691.242 184.635 697.391 184.319C706.063 183.846 710.005 182.743 714.735 179.589C718.677 177.066 722.304 172.809 724.511 168.237C726.403 164.137 728.138 158.619 728.138 156.096C728.138 153.416 728.295 151.366 728.453 151.366C728.611 151.208 731.291 152.47 734.445 153.889C738.386 155.781 742.486 156.254 749.423 155.781C754.627 155.308 762.353 153.416 766.767 151.523C771.025 149.631 776.543 146.163 778.908 143.798C781.431 141.432 784.9 135.599 786.634 130.868C788.842 125.192 789.945 118.097 790.103 110.371C790.103 101.384 789.315 96.811 786.95 91.4501C785.057 87.5083 781.273 81.9898 778.278 79.3093C775.439 76.6289 770.236 72.8448 766.767 71.1104C763.299 69.376 758.253 67.3262 755.73 66.6955C752.104 65.9071 751.316 66.0648 752.104 67.4839C752.735 68.4299 754.469 69.3759 756.046 69.2183C757.622 69.2183 759.83 70.322 761.249 71.5834C762.51 73.0024 765.191 74.4215 767.083 74.8945C768.975 75.3675 770.709 76.6289 770.709 78.048C770.709 79.3093 771.813 80.8861 773.39 81.5168C774.966 82.1475 777.489 83.7242 778.908 84.9855C780.485 86.4046 781.746 88.4544 781.746 89.8734C781.746 91.4501 780.485 90.9771 777.332 87.9813C774.966 85.6162 770.236 82.3051 766.767 80.5707C763.299 78.8363 757.149 76.9442 753.365 76.3135C749.108 75.6829 742.643 76.1559 737.598 77.2596C732.71 78.3633 726.246 80.8861 722.934 82.9358C719.623 84.9856 714.893 88.9274 712.37 91.7655C709.69 94.6036 707.325 98.2301 706.852 99.6492C706.063 102.014 705.275 102.172 701.649 100.753C699.284 99.9645 695.499 99.4915 693.45 99.9645C691.242 100.437 688.089 102.33 686.354 104.064L683.201 107.217C678.628 96.811 675.16 90.9771 672.321 87.5083C669.483 84.0395 663.965 79.467 660.181 77.2596C654.504 74.2638 651.036 73.4755 641.418 73.4755C631.169 73.6331 628.331 74.2638 620.92 78.3633C616.032 81.0438 609.252 86.247 605.468 90.0311C601.842 93.8153 597.9 98.3878 596.639 100.122C595.377 101.857 592.854 107.533 590.962 112.736C589.07 118.097 587.809 125.192 587.967 129.292L588.282 136.387C603.103 129.449 605.941 128.976 614.613 129.607C620.605 130.238 627.227 131.814 630.696 133.864C634.007 135.599 636.687 137.491 636.687 137.964C636.687 138.279 632.588 138.279 627.542 137.648C622.339 137.175 615.086 137.491 610.671 138.594C605.941 139.698 599.477 142.851 594.904 146.478L587.021 152.47C578.349 143.167 573.461 139.698 570.465 138.752C567.311 137.964 562.266 137.175 558.955 137.175L553.121 137.175C556.905 128.188 557.063 125.034 556.117 119.831C555.328 115.416 552.963 111.002 550.44 108.321C546.656 104.379 545.868 102.33 545.395 93.3423C545.08 86.72 543.66 79.7824 541.453 75.0522C538.93 69.376 536.565 66.8532 531.835 64.4881Z" fill="#FFC3C2"/>
<path d="M46.2029 131.972C50.46 131.657 47.3066 131.341 39.1076 131.341C30.751 131.341 27.2821 131.657 31.224 131.972C35.0081 132.287 41.788 132.287 46.2029 131.972Z" fill="#FFC3C2"/>
</svg>
