<svg width="221" height="618" viewBox="0 0 221 618" fill="none" xmlns="http://www.w3.org/2000/svg">
<path d="M70 397.5H42L0 618H116.5L70 397.5Z" fill="url(#paint0_linear_1_285)"/>
<path d="M174 397.5H146L104 618H220.5L174 397.5Z" fill="url(#paint1_linear_1_285)"/>
<path d="M102.095 2.45791C102.916 1.89314 104.559 1.07165 105.689 0.609556C106.818 0.147466 108.307 -0.10925 109.026 0.0447799C109.745 0.19881 111.439 0.814929 112.877 1.48239C114.366 2.14985 116.933 4.1009 119.089 6.15463C121.092 8.15702 124.224 12.0591 126.123 14.883C127.972 17.7069 131.001 23.0466 132.849 26.6919C134.646 30.3886 136.957 35.677 137.932 38.5009C138.908 41.3248 140.345 46.3051 142.604 55.4442L142.912 148.119L142.914 148.633C143.169 239.562 143.17 239.734 143.426 113.205L145.172 108.995C146.096 106.633 148.509 100.934 150.46 96.2621C152.411 91.5898 154.311 86.8662 154.67 85.7367C155.029 84.6071 155.902 82.5534 156.672 81.1158C157.751 79.1134 158.367 78.4973 159.445 78.4459C160.267 78.3433 161.345 78.5486 161.909 78.8053C162.474 79.1134 163.501 80.551 164.169 82.04C164.836 83.4776 165.812 86.1988 166.274 88.0471C166.787 89.8955 167.609 92.3086 168.122 93.4382C168.635 94.5677 170.689 99.3427 172.692 104.118C174.643 108.841 176.234 113 176.234 113.359C176.183 113.667 176.183 115.978 176.286 122.961H179.88V126.298C179.88 128.66 179.674 129.738 179.161 129.995C178.545 130.354 178.391 141.752 178.134 288.029L187.016 297.014C191.894 301.943 196.515 306.821 197.336 307.796C198.158 308.772 199.595 311.339 200.571 313.444C201.598 315.549 202.984 319.349 203.703 321.916C204.422 324.483 204.986 327.358 204.935 328.334C204.935 329.309 205.089 331.722 205.295 333.725C205.603 336.446 205.551 337.729 204.986 339.064C204.576 340.04 203.703 341.221 202.984 341.734C202.06 342.35 199.904 342.761 195.539 343.172C192.151 343.428 186.965 343.839 183.987 343.993C181.009 344.147 177.98 344.404 177.158 344.558C176.234 344.712 175.875 345.02 176.029 345.534C176.183 345.944 176.08 346.612 175.772 346.971C175.515 347.279 175.31 349.076 175.31 350.925C175.31 352.773 175.259 354.827 175.259 355.546C175.207 356.264 175.207 357.856 175.259 359.14C175.259 360.423 175.259 362.631 175.207 364.017C175.207 365.455 175.156 367.149 175.207 367.868C175.207 368.587 176.132 370.332 177.21 371.719C178.288 373.156 179.674 375.775 180.29 377.623C180.958 379.471 181.625 382.398 181.831 384.195C182.139 386.814 182.036 387.532 181.42 387.892C181.009 388.148 178.955 388.405 176.902 388.405C174.899 388.405 173.205 388.559 173.205 388.816C173.205 389.021 173.872 390.921 174.745 393.026C175.567 395.131 176.234 397.39 176.286 399.187H159.599C146.712 399.187 142.861 399.033 142.656 398.571C142.502 398.212 143.067 395.953 143.939 393.54L144.012 393.327C144.803 391.004 145.48 389.015 145.48 388.816C145.48 388.559 143.375 388.405 136.238 388.405V386.506C136.238 385.427 136.597 383.22 137.008 381.628C137.419 379.985 138.394 377.572 139.113 376.237C139.832 374.851 141.115 372.643 141.937 371.205C143.323 368.843 143.426 368.33 143.221 364.787C143.067 362.682 142.964 360.526 142.912 360.064V356.059V352.362C142.912 352.003 143.015 350.873 143.169 349.898C143.375 348.717 143.272 347.844 142.81 347.433C142.45 347.074 141.578 346.817 139.729 347.074L139.832 366.328H134.698H134.697C129.615 366.328 129.563 366.328 129.871 367.509C130.025 368.125 130.385 370.23 130.744 372.129C131.36 375.621 131.36 375.672 130.077 376.596C129.358 377.11 127.407 377.777 125.712 378.034C124.018 378.291 120.321 378.445 117.498 378.342L117.308 378.335C114.546 378.235 111.784 378.134 111.131 378.034C109.95 377.88 109.847 378.085 109.283 381.474C108.975 383.476 108.512 385.376 108.358 385.735C108.153 386.043 107.691 386.352 107.332 386.352C107.024 386.403 106.356 385.992 105.843 385.479C105.381 384.965 104.816 383.425 104.61 381.987C104.405 380.601 104.251 379.009 104.302 378.547C104.354 378.034 104.251 377.623 103.994 377.623C103.789 377.623 102.916 377.931 102.095 378.393C100.965 378.958 99.168 379.163 95.42 379.112C92.5961 379.061 88.7967 378.701 86.9483 378.342C85.1 377.931 83.2516 377.264 82.8409 376.853C82.1734 376.186 82.1734 375.569 82.6868 372.848C82.9949 371.103 83.4056 369.049 83.8677 366.841L73.8558 366.584V356.829C73.8558 348.409 73.7531 347.074 73.0856 347.228C72.6749 347.331 72.1101 347.69 71.9047 347.998C71.6994 348.357 71.648 349.436 71.8021 350.411C71.9561 351.387 72.0588 352.465 72.0588 352.722C72.0074 352.978 71.9047 354.519 71.7507 356.059C71.5967 357.599 71.6994 359.14 71.9561 359.396C72.2128 359.653 72.2641 360.372 72.0074 360.937C71.8021 361.501 71.5967 363.555 71.5453 365.557C71.494 368.843 71.648 369.306 73.0343 370.949C73.9071 371.924 75.1907 373.926 75.9095 375.313C76.577 376.75 77.5525 379.626 77.9632 381.731C78.4253 383.836 78.7334 386.146 78.6307 386.865C78.4767 388.097 78.2713 388.148 74.2665 388.405C71.9561 388.559 69.9537 388.816 69.7997 389.073C69.6456 389.278 70.3644 391.383 71.3913 393.796C72.983 397.39 73.2397 398.314 72.6749 398.828C72.2128 399.29 67.6946 399.495 55.8856 399.598C40.8934 399.701 39.6612 399.649 39.3531 398.828C39.1477 398.263 39.5585 396.363 40.3286 394.31C41.0474 392.307 41.7662 390.305 41.9716 389.843C42.2283 389.021 41.8176 388.919 32.7812 388.662L32.8839 385.735C32.9865 384.092 33.5 381.32 34.1161 379.574C34.6809 377.777 36.1698 374.953 39.4558 370.178L39.6098 363.76C39.7125 360.218 39.7639 356.88 39.7639 356.316C39.7639 355.751 39.6612 353.338 39.5071 350.925C39.3018 348.512 39.1477 346.098 39.1477 345.534C39.0964 344.558 38.3776 344.455 12.7573 342.658L11.3197 341.169C10.5495 340.297 9.93342 339.167 9.93342 338.602C9.93342 338.037 9.88208 337.062 9.77939 336.446C9.6767 335.778 9.83073 334.443 10.0361 333.468C10.2415 332.492 10.4982 330.079 10.6522 328.077C10.8063 326.074 11.5251 322.532 12.2439 320.119C12.9627 317.706 14.3489 314.009 15.3758 311.904C17.0701 308.515 18.4051 306.872 37.1454 288.029V208.858C37.1454 138.774 37.0427 129.635 36.3752 129.635C35.7591 129.635 35.6051 128.916 35.6051 126.041C35.6051 123.525 35.8104 122.447 36.2212 122.396C36.5806 122.344 37.3507 122.293 37.9155 122.242C38.8397 122.19 38.9424 121.728 39.1991 117.313C39.4045 113.513 39.8152 111.665 40.8934 109.098C41.6636 107.25 42.5364 105.298 42.7931 104.734C43.0498 104.169 43.7173 102.68 44.2307 101.396C44.7955 100.113 46.1818 96.8268 47.3627 94.1056C48.4922 91.3331 49.4677 88.92 49.4677 88.7146C49.4677 88.4579 49.9812 87.0203 50.6486 85.48C51.2647 83.9397 52.2916 81.7833 52.9591 80.7564C53.8833 79.1647 54.3967 78.8053 55.6289 78.8053C56.5018 78.8053 57.58 79.2161 58.0421 79.7295C58.5042 80.1916 59.4283 81.7832 60.0444 83.1695C60.7119 84.6071 61.5847 87.0203 61.9955 88.5606C62.4062 90.1009 64.1006 94.6191 65.7949 98.5725C67.4379 102.526 69.4916 107.352 71.8021 112.949L72.0588 85.2233C72.3155 61.0406 72.4695 56.9845 73.291 53.3904C73.8044 51.1313 74.8827 46.9725 75.6528 44.1486C76.4743 41.3248 77.5012 38.0901 77.9632 36.9606C78.4767 35.831 79.6062 33.2639 80.5304 31.3128C81.4546 29.3618 83.5597 25.4084 85.1513 22.5845C86.7943 19.7606 89.6695 15.3964 91.5692 12.8293C93.4689 10.2621 96.2414 7.13015 97.7817 5.84657C99.322 4.56299 101.273 3.02269 102.095 2.45791Z" fill="#464646"/>
<path fill-rule="evenodd" clip-rule="evenodd" d="M107.896 2.30389C108.512 2.30389 109.488 2.81733 110.053 3.48479C110.618 4.10091 111.901 6.20598 112.825 8.20837C113.801 10.2108 115.187 14.0102 115.906 16.68C116.625 19.3499 117.549 23.714 117.96 26.3325C118.422 28.8997 118.781 31.3642 118.781 31.6722C118.781 32.1857 116.368 32.3397 108.358 32.3397C102.659 32.3397 95.574 32.5451 92.596 32.7504C89.6181 33.0072 86.0241 33.3666 84.6378 33.6233C83.2002 33.9313 82.0193 34.0854 81.9166 33.9827C81.8653 33.9313 82.5328 32.237 83.5083 30.286C84.4325 28.3349 86.4862 24.4842 88.0778 21.8143C89.7208 19.1445 92.4934 15.0884 94.2904 12.8293C96.0874 10.5702 98.6032 7.90031 99.8354 6.87344C101.068 5.84658 103.121 4.35762 104.405 3.63882C105.689 2.92001 107.229 2.30389 107.845 2.30389L107.896 2.30389ZM112.671 3.84419C112.928 3.84419 114.263 4.71703 115.598 5.79524C116.984 6.87344 119.038 8.92718 120.167 10.3134C121.348 11.6997 123.351 14.4209 124.686 16.4233C126.021 18.4257 128.69 23.2006 130.693 27.1027C132.644 30.9534 134.184 34.2394 134.081 34.3421C134.03 34.4961 133.055 34.3934 131.925 34.1367C130.795 33.88 128.69 33.5719 127.304 33.3666C125.866 33.2125 123.71 32.9558 120.116 32.5451L119.397 28.0782C119.038 25.6137 118.268 21.763 117.754 19.5039C117.241 17.2448 116.317 13.9075 115.701 12.0591C115.136 10.2108 114.058 7.69494 113.39 6.41136C112.671 5.12777 112.158 4.04956 112.158 3.94688C112.158 3.89554 112.363 3.84419 112.671 3.84419ZM110.977 34.034C116.727 34.0854 118.884 34.2907 119.038 34.7528C119.192 35.1122 119.449 36.8066 119.603 38.5009C119.757 40.1952 120.013 52.5689 120.167 65.9695C120.321 79.3701 120.321 91.0251 119.859 93.4382L106.407 93.5409C98.9626 93.5922 90.0289 93.8489 86.4862 94.2083C82.9435 94.5164 79.1441 94.9785 78.0146 95.2352C76.885 95.4919 75.5501 95.8 75.0367 95.954C74.2152 96.2621 74.1638 95.2352 74.1638 79.4728C74.1638 70.1797 74.4205 60.6812 74.6772 58.2681C74.9853 55.8549 75.7041 52.0555 76.2689 49.7964C76.885 47.5373 77.8605 43.9433 78.5793 41.8382C79.2468 39.7331 80.171 37.6281 80.6844 37.166C81.1978 36.7039 82.4301 36.0878 83.4056 35.7797C84.3811 35.4716 86.2295 35.0609 87.5131 34.8555C88.7966 34.6502 92.8528 34.3421 96.4981 34.1881C100.144 34.034 106.715 33.9313 110.977 33.9827V34.034ZM120.321 34.7015H122.889C124.326 34.7015 127.304 34.9582 129.461 35.3176C132.182 35.7284 133.825 36.2931 134.543 37.0119C135.16 37.5767 136.084 39.5278 136.7 41.3761C137.316 43.2245 138.24 46.5618 138.805 48.8209C139.37 51.08 140.14 54.8794 140.499 57.2925C140.961 60.3731 141.115 66.637 140.859 96.0567L138.446 95.4919C137.111 95.1325 132.746 94.5677 121.502 93.4895L121.246 67.8179C121.092 53.6985 120.835 40.4519 120.681 38.3982L120.321 34.7015ZM160.266 80.397C160.626 80.397 161.242 80.9618 161.653 81.5779C162.012 82.194 162.834 84.2477 163.45 86.0448C164.015 87.8931 164.477 89.4334 164.374 89.4848C164.323 89.4848 162.372 89.6388 160.01 89.7415C157.443 89.8442 155.8 89.7415 155.8 89.3821C155.8 89.1254 156.262 87.6364 156.878 86.0448C157.443 84.5045 158.315 82.6048 158.778 81.8346C159.188 81.0645 159.856 80.397 160.266 80.397ZM55.937 80.9618C56.1937 80.9618 56.8098 81.4752 57.2719 82.0913C57.734 82.7588 58.5041 84.5045 59.0176 86.0448C59.531 87.6364 59.9931 89.1767 60.0958 89.5361C60.2498 89.9982 59.1716 90.1522 55.937 90.1522C53.3698 90.1522 51.5728 89.9468 51.5728 89.6388C51.5728 89.3821 52.0862 87.8418 52.651 86.1988C53.2671 84.5558 54.1399 82.7588 54.602 82.0913C55.0641 81.4752 55.6289 80.9618 55.937 80.9618ZM160.677 90.7683C162.115 90.717 163.655 90.9737 164.271 91.3845C164.836 91.7952 165.709 92.9761 166.171 94.1057C166.633 95.1839 168.43 99.3427 170.073 103.245C171.716 107.198 173.308 111.049 173.513 111.716C173.77 112.538 173.77 112.897 173.462 112.692C173.205 112.487 171.357 112.178 169.406 111.973C167.403 111.768 163.244 111.614 160.164 111.614C157.032 111.614 152.719 111.768 150.511 111.922C147.995 112.127 146.558 112.076 146.558 111.716C146.558 111.46 147.585 108.738 148.868 105.709C150.152 102.68 151.949 98.4698 152.822 96.3134C153.695 94.2083 154.67 92.2059 154.927 91.8979C155.183 91.5385 156.005 91.1791 156.724 91.0764C157.494 90.9224 159.24 90.8197 160.677 90.7683ZM55.8343 91.2304C57.8367 91.2304 59.7364 91.3845 60.0444 91.5898C60.3011 91.7952 60.8146 92.5654 61.174 93.2328C61.482 93.9516 62.2522 95.5946 62.7656 96.8268C63.3304 98.1104 64.9734 102.013 66.411 105.453C67.8486 108.893 69.0295 111.87 69.0295 111.973C69.0295 112.127 67.5919 112.076 65.7949 111.87C64.0492 111.665 59.377 111.46 55.4235 111.46C51.4701 111.46 46.9005 111.665 45.2576 111.87C43.6659 112.076 42.331 112.127 42.331 111.973C42.331 111.87 43.4605 109.047 44.7955 105.709C46.1817 102.372 47.8761 98.3158 48.5435 96.6728C49.211 95.0298 50.2892 93.1301 50.9567 92.4627C51.9835 91.3331 52.5483 91.2304 55.8343 91.2304ZM107.537 94.4137C111.644 94.3624 116.111 94.5164 120.116 95.0298V109.817C120.116 117.929 120.013 124.604 119.859 124.604C119.705 124.604 119.192 123.936 118.73 123.166C118.268 122.396 116.984 120.753 115.906 119.469C114.828 118.237 113.031 116.543 111.901 115.721C110.464 114.694 109.231 114.284 107.794 114.284C106.407 114.284 105.175 114.694 103.943 115.618C102.967 116.337 101.427 117.775 100.554 118.853C99.6814 119.88 97.9871 122.242 96.7549 124.039C95.574 125.887 93.3662 129.943 91.8772 133.024C90.3369 136.156 88.6426 140.417 88.0778 142.522C87.5131 144.679 86.4349 149.659 85.716 153.561C84.9972 157.515 84.1758 164.241 83.919 168.451C83.6623 172.712 83.2002 177.436 82.8922 178.976C82.6355 180.568 81.814 185.394 81.0952 189.758C80.4277 194.174 79.3495 200.746 78.7847 204.391C78.1686 208.088 77.6038 211.682 77.5011 212.349C77.3984 213.068 76.6796 217.484 75.9608 222.104C75.242 226.777 74.5232 230.833 74.4205 231.089C74.3178 231.398 74.2152 201.516 74.1638 97.905L75.8068 97.1349C76.731 96.7755 79.3495 96.1594 81.6086 95.8513C83.8677 95.4919 88.9507 95.0298 92.9041 94.8244C96.8575 94.6704 103.429 94.465 107.537 94.4137ZM120.783 94.7731L122.529 94.8244C123.453 94.8244 126.739 95.0298 129.871 95.3379C132.952 95.5946 136.7 96.2107 138.189 96.6215C139.678 97.0322 140.91 97.597 140.91 97.8537C140.91 98.1618 140.91 101.499 140.91 105.298C140.91 109.149 140.91 138.518 140.91 170.658C140.91 202.799 140.807 228.933 140.705 228.779C140.602 228.676 139.524 222.875 138.394 215.943C137.213 209.063 136.186 202.902 136.084 202.337C135.981 201.772 135.776 200.54 135.57 199.513C135.416 198.538 135.16 196.946 135.006 195.919C134.852 194.944 134.595 193.558 134.492 192.839C134.338 192.171 134.133 190.785 133.979 189.758C133.773 188.783 133.209 185.445 132.644 182.313C132.079 179.233 131.412 172.404 131.155 167.167C130.898 161.981 130.333 155.512 129.923 152.791C129.461 150.121 128.998 147.349 128.844 146.63C128.742 145.962 128.023 143.601 127.304 141.393C126.585 139.185 124.942 135.18 121.297 127.376L120.783 94.7731ZM53.0617 112.846C55.4749 112.795 59.9931 112.949 63.0737 113.308C66.2056 113.616 69.1322 114.078 69.6456 114.335C70.4671 114.797 70.5184 115.927 70.5184 139.955L66.3083 139.596C63.9465 139.39 58.7095 139.185 54.602 139.185C50.4946 139.185 45.771 139.339 40.9961 139.698V127.479C40.9961 120.753 41.1501 114.951 41.3555 114.643C41.5608 114.335 43.3065 113.821 45.2062 113.513C47.1059 113.257 50.6486 112.949 53.0617 112.846ZM161.396 113.051C164.066 113.103 167.763 113.308 169.611 113.513C171.459 113.719 173.256 114.181 173.616 114.489C174.129 114.951 174.283 117.98 174.232 140.212L172.178 139.852C171.049 139.647 167.198 139.339 163.604 139.185C159.958 138.98 154.721 139.082 151.898 139.39C149.074 139.647 146.352 140.007 145.89 140.212C145.018 140.469 144.966 139.647 144.915 115.054L146.352 114.438C147.174 114.078 149.741 113.616 152.154 113.411C154.567 113.154 158.726 113 161.396 113.051ZM107.588 115.824C107.794 115.824 108.615 116.183 109.437 116.543C110.207 116.953 111.182 117.672 111.593 118.134C112.312 118.904 112.004 118.956 107.794 118.956C105.226 118.956 103.378 118.75 103.686 118.494C103.943 118.288 104.816 117.57 105.637 116.953C106.459 116.337 107.332 115.824 107.588 115.824ZM106.613 121.523C109.488 121.523 112.671 121.626 113.647 121.78C115.238 122.036 115.752 122.55 117.908 126.041C119.243 128.198 121.246 132.151 122.375 134.821C123.556 137.542 124.378 139.75 124.326 139.801C124.223 139.852 123.248 139.698 122.118 139.442C120.989 139.236 116.368 138.877 111.85 138.672C107.178 138.466 100.965 138.569 97.4737 138.877C94.085 139.185 91.2611 139.39 91.2611 139.339C91.2098 139.236 92.1853 137.029 93.4689 134.307C94.7525 131.638 95.882 129.327 95.9847 129.173C96.0874 129.07 96.3441 129.07 96.4981 129.173C96.6522 129.327 96.1387 130.97 95.4199 132.767C94.7011 134.615 94.239 136.258 94.3931 136.361C94.5471 136.515 95.4199 136.31 96.3441 135.848C97.6277 135.283 100.144 135.078 107.742 135.078C115.341 135.078 117.857 135.283 119.192 135.848C120.116 136.31 120.989 136.515 121.092 136.361C121.246 136.258 120.783 134.513 120.013 132.51C119.243 130.559 118.37 128.608 118.062 128.249C117.703 127.735 116.676 127.581 114.879 127.735C113.441 127.838 111.85 128.249 111.336 128.66C110.772 129.173 109.334 129.481 107.537 129.481C105.843 129.481 104.456 129.173 104.148 128.814C103.892 128.454 102.197 127.992 100.4 127.787C98.6545 127.581 97.2169 127.325 97.2169 127.273C97.2169 127.222 97.7817 126.298 98.3978 125.22C99.0653 124.141 100.041 122.909 100.503 122.396C101.222 121.677 102.351 121.523 106.613 121.523ZM37.9155 123.525C39.0964 123.525 39.1991 123.731 39.1991 126.092C39.1991 128.506 39.0964 128.66 37.9155 128.66C36.7346 128.66 36.6319 128.506 36.6319 126.092C36.6319 123.731 36.7346 123.525 37.9155 123.525ZM177.569 123.525C178.75 123.525 178.853 123.731 178.853 126.092C178.853 127.735 178.596 128.762 178.237 128.865C177.877 128.968 177.261 128.968 176.953 128.865C176.542 128.762 176.286 127.735 176.286 126.092C176.286 123.731 176.388 123.525 177.569 123.525ZM100.76 128.865C102.043 129.019 103.173 129.43 103.224 129.687C103.275 129.995 105.021 130.251 107.332 130.251C110.001 130.251 111.542 130.046 111.952 129.584C112.261 129.224 113.595 128.865 114.879 128.814C117.189 128.711 117.241 128.711 118.268 130.867C118.832 132.048 119.295 133.435 119.295 133.948C119.295 134.564 119.038 134.77 118.422 134.513C117.908 134.307 113.903 134.102 109.539 133.948C105.175 133.845 100.349 133.897 98.8599 134.153C96.3441 134.564 96.1901 134.513 96.3954 133.537C96.5495 132.973 97.0629 131.638 97.525 130.559C98.3465 128.608 98.3978 128.608 100.76 128.865ZM38.6856 129.687C38.9937 129.687 39.1991 131.843 39.1991 135.078C39.1991 138.364 38.9937 140.469 38.6856 140.469C38.3776 140.469 38.1722 138.364 38.1722 135.078C38.1722 131.843 38.3776 129.687 38.6856 129.687ZM176.799 130.2C177.107 130.2 177.312 132.254 177.312 135.334C177.312 138.415 177.107 140.469 176.799 140.469C176.491 140.469 176.286 138.415 176.286 135.334C176.286 132.254 176.491 130.2 176.799 130.2ZM106.202 139.544C109.591 139.493 114.93 139.698 118.011 140.007C121.143 140.315 124.069 140.777 124.583 141.033C125.148 141.341 125.764 142.984 126.431 146.014C126.996 148.478 127.715 152.124 128.023 154.075C128.331 156.077 128.742 160.903 129.306 171.891L127.253 171.531C126.123 171.377 122.529 171.018 119.295 170.812C116.06 170.556 109.231 170.504 104.148 170.607C99.0653 170.761 93.4175 171.069 91.5692 171.326C89.7208 171.583 87.6671 171.942 86.9483 172.096C85.6647 172.353 85.6647 172.301 85.8187 169.118C85.8701 167.372 86.1781 164.035 86.4862 161.776C86.7429 159.517 87.4617 155.255 88.0265 152.278C88.6426 149.351 89.4128 145.654 89.8235 144.063C90.2343 142.522 90.7477 141.085 90.9531 140.879C91.1584 140.674 93.2635 140.263 95.6766 140.058C98.0898 139.801 102.813 139.596 106.202 139.544ZM56.9125 140.725C62.5602 140.828 67.9513 141.136 70.5184 142.009V195.149L67.7972 194.841C66.3596 194.687 61.0713 194.533 56.1423 194.533C51.2134 194.533 45.8223 194.687 44.2307 194.841C41.6122 195.149 41.3041 195.098 41.0988 194.122C40.9961 193.558 40.9447 181.646 40.9447 167.629C40.9961 153.612 41.2014 141.906 41.4068 141.701C41.6635 141.444 42.9471 141.085 44.2307 140.931C45.5656 140.725 51.2647 140.623 56.9125 140.725ZM161.909 140.777C166.582 140.879 171.203 141.136 173.975 141.804L174.232 194.636H144.966V168.707C144.915 148.17 145.069 142.676 145.582 142.163C145.942 141.804 147.893 141.29 149.844 141.033C151.846 140.777 157.237 140.674 161.909 140.777ZM38.6856 142.009C39.045 142.009 39.1991 143.652 39.0964 146.424C38.9937 148.889 38.7883 150.943 38.5829 151.045C38.3262 151.199 38.1722 149.197 38.1722 146.63C38.1722 143.806 38.3776 142.009 38.6856 142.009ZM38.5316 152.996C38.7883 153.202 38.9423 155.101 38.9423 157.155C38.9423 159.26 38.7883 161.16 38.5316 161.365C38.3262 161.622 38.1722 159.722 38.1722 157.155C38.1722 154.639 38.3262 152.74 38.5316 152.996ZM38.5316 163.265C38.7883 163.47 38.891 165.575 38.7883 167.886C38.6856 170.196 38.5316 172.199 38.3776 172.301C38.2749 172.455 38.1722 170.402 38.1722 167.681C38.1722 165.011 38.3262 163.008 38.5316 163.265ZM111.593 172.609C117.395 172.712 123.505 173.02 125.199 173.328C126.893 173.636 128.639 174.201 129.05 174.663C129.717 175.331 129.871 178.052 130.179 206.445L128.998 206.085C128.331 205.88 125.712 205.315 123.145 204.853C119.859 204.237 115.495 204.032 107.742 204.032C100.041 204.032 95.6766 204.237 92.3393 204.853C89.8235 205.315 87.205 205.829 85.408 206.188V175.382L86.5889 174.663C87.205 174.304 88.5399 173.79 89.5154 173.585C90.491 173.38 93.5202 173.072 96.1901 172.866C98.8599 172.609 105.791 172.558 111.593 172.609ZM38.5829 173.842C38.7883 173.842 38.891 175.331 38.7883 177.076C38.737 178.822 38.5829 180.978 38.4802 181.8C38.4289 182.673 38.3262 181.235 38.2749 178.617C38.2235 175.998 38.3262 173.842 38.5829 173.842ZM38.5316 186.934C38.6343 188.372 38.6343 190.426 38.5316 191.555C38.4289 192.685 38.3776 191.555 38.3776 188.988C38.3776 186.472 38.4289 185.548 38.5316 186.934ZM83.4569 190.785C83.6623 190.785 83.8677 199.462 83.8677 229.292H81.814C80.6331 229.292 79.6575 229.601 79.5035 229.96C79.4008 230.319 78.9387 233.041 78.528 235.967C77.9119 240.126 76.885 243.771 70.3644 261.895L23.3853 309.131L20.202 315.549C17.7889 320.529 17.2241 322.07 17.7376 322.378C18.097 322.635 31.9597 322.737 48.5949 322.635C68.4647 322.532 78.7334 322.686 78.7334 322.994C78.7334 323.302 78.3226 324.945 77.8092 326.588C76.9363 329.463 76.7823 329.72 75.3447 329.771C74.5232 329.771 72.3668 329.617 70.5184 329.412C68.6701 329.206 61.5334 328.847 54.602 328.693C47.6707 328.539 35.451 328.18 27.3901 327.872C19.3292 327.615 12.7059 327.307 12.7059 327.255C12.6546 327.204 13.014 325.51 13.5274 323.507C14.0409 321.556 15.0677 318.322 15.8379 316.319C16.6594 314.368 18.0456 311.596 18.9185 310.158C19.8426 308.772 24.3608 303.946 28.9817 299.427C33.6026 294.909 41.3041 287.413 46.0791 282.741C50.8026 278.069 55.937 272.832 57.3746 271.137C58.8635 269.494 60.8659 266.927 61.8414 265.489C62.817 264.103 64.6653 261.228 66.0002 259.072C67.2838 256.966 69.1322 253.629 70.005 251.627C70.9292 249.676 72.4695 246.082 73.445 243.669C74.6772 240.639 75.5501 237.045 76.4743 231.603C77.1417 227.393 78.6307 218.151 79.7602 211.066C80.8898 204.032 82.122 196.587 82.4301 194.533C82.7381 192.479 83.2002 190.785 83.4569 190.785ZM132.182 192.839C132.387 193.558 134.235 203.98 136.238 215.943C138.446 229.138 140.397 239.099 141.115 241.101C141.783 242.95 142.81 245.62 143.426 247.006C144.042 248.443 144.915 250.395 145.377 251.37C145.839 252.397 147.482 255.375 149.022 258.045C150.563 260.766 152.976 264.565 154.465 266.516C155.902 268.519 165.606 278.685 175.977 289.107C186.349 299.581 195.385 308.823 196.001 309.645C196.669 310.517 197.798 312.366 198.466 313.752C199.185 315.19 200.417 318.27 201.136 320.581C201.855 322.891 202.471 325.407 202.471 326.074C202.471 327.307 202.317 327.409 198.774 327.615C196.72 327.769 191.432 327.974 187.068 328.128C182.703 328.282 175.31 328.539 170.638 328.744C165.966 328.898 159.496 329.155 156.262 329.36C152.976 329.566 147.431 329.669 137.624 329.669L136.957 326.845C136.597 325.304 136.289 323.764 136.289 323.405C136.238 322.891 142.81 322.737 167.3 322.737C184.398 322.737 198.363 322.583 198.363 322.378C198.363 322.172 197.696 320.581 196.926 318.886C196.104 317.243 194.769 314.42 193.999 312.725C192.715 310.055 189.635 306.821 145.223 262.922L141.526 252.397C138.702 244.336 137.727 240.742 137.265 236.994C136.957 234.324 136.597 231.5 136.495 230.73C136.238 229.446 136.032 229.292 131.617 229.292L131.668 210.449C131.668 198.692 131.874 192.069 132.182 192.839ZM38.5316 196.946C38.6343 198.23 38.6343 200.438 38.5316 201.824C38.4289 203.261 38.3776 202.235 38.3776 199.513C38.3776 196.844 38.4289 195.714 38.5316 196.946ZM57.9393 196.176C63.5871 196.279 68.7214 196.535 70.5184 196.946V221.848L57.5799 221.899C50.4432 221.899 43.7173 222.053 40.7394 222.618L40.8934 210.09C40.9447 203.21 41.2014 197.357 41.4582 197.152C41.6635 196.895 43.2038 196.535 44.7955 196.381C46.3871 196.176 52.2916 196.073 57.9393 196.176ZM160.626 196.125C167.403 196.176 173.256 196.381 173.616 196.587C174.078 196.895 174.232 200.078 174.232 222.618L171.562 222.31C170.073 222.104 164.22 221.95 158.572 222.002C152.924 222.002 147.533 222.156 144.966 222.618L145.223 196.741L146.763 196.381C147.636 196.176 153.849 196.073 160.626 196.125ZM38.5316 207.728C38.6343 209.012 38.6343 211.22 38.5316 212.606C38.4289 214.044 38.3776 213.017 38.3776 210.295C38.3776 207.626 38.4289 206.496 38.5316 207.728ZM106.715 205.777C108.975 205.777 113.698 205.931 117.241 206.239C120.783 206.496 124.583 207.009 125.712 207.318C126.842 207.626 128.28 208.242 130.025 209.525L130.077 269.34L128.947 269.135C128.28 268.981 124.994 268.467 121.605 268.005C116.779 267.389 112.928 267.286 103.635 267.492C97.1656 267.646 90.799 268.005 89.5154 268.313C88.2319 268.621 86.7943 268.981 86.3322 269.135C85.4593 269.34 85.408 267.697 85.408 239.715C85.408 212.144 85.4593 209.987 86.2808 209.012C86.7943 208.447 88.4886 207.677 90.0289 207.266C91.5692 206.907 95.0605 206.393 97.7304 206.239C100.4 206.034 104.456 205.829 106.715 205.777ZM38.5316 218.767C38.6343 220.205 38.6343 222.258 38.5316 223.388C38.4289 224.518 38.3776 223.388 38.3776 220.821C38.3776 218.305 38.4289 217.381 38.5316 218.767ZM58.4528 223.439C64.1005 223.491 69.1322 223.747 69.6456 223.901C70.4158 224.158 70.5184 225.134 70.5184 234.684C70.5184 244.439 70.4158 245.466 69.3889 247.93C68.7728 249.419 67.2325 252.448 66.0002 254.707C64.768 256.966 62.4576 260.766 60.8659 263.179C59.2743 265.541 55.6289 269.854 47.6707 278.017L40.7394 278.325V251.524C40.7394 230.627 40.8934 224.62 41.4068 224.312C41.7149 224.107 43.4092 223.799 45.1035 223.593C46.7979 223.388 52.805 223.337 58.4528 223.439ZM162.936 223.491C167.865 223.645 172.435 223.953 174.232 224.672V278.069L171.049 277.76C168.019 277.452 167.609 277.247 164.733 274.629C163.039 273.088 160.421 270.418 158.932 268.673C157.443 266.927 155.286 264.103 154.105 262.409C152.924 260.766 150.409 256.299 144.966 245.722V235.197C144.966 227.341 145.12 224.62 145.634 224.312C145.942 224.107 147.995 223.799 150.1 223.593C152.206 223.388 158.007 223.337 162.936 223.491ZM38.5316 228.779C38.6343 230.063 38.6343 232.27 38.5316 233.657C38.4289 235.094 38.3776 234.067 38.3776 231.346C38.3776 228.676 38.4289 227.547 38.5316 228.779ZM83.8677 230.319L83.919 313.239L82.0707 316.319C81.0438 318.014 80.1196 319.965 79.7602 321.71H49.211C32.4217 321.71 18.6617 321.556 18.6617 321.351C18.6617 321.146 19.894 318.527 23.9501 310.158L70.9292 262.922L72.9829 257.275C74.1638 254.194 75.8581 249.47 76.8337 246.749C77.8092 244.079 78.8874 240.383 79.1441 238.534C79.4522 236.737 79.8629 234.119 80.0169 232.784C80.325 230.422 80.3764 230.319 83.8677 230.319ZM131.617 230.319H133.414C134.543 230.319 135.314 230.627 135.468 231.089C135.622 231.552 135.724 232.63 135.724 233.554C135.724 234.478 136.084 236.943 136.495 239.048C136.854 241.204 138.702 247.417 143.939 262.922L191.945 310.826L194.41 316.011C195.745 318.886 196.72 321.351 196.617 321.556C196.515 321.762 184.09 321.864 168.995 321.864C153.951 321.864 140.294 321.813 135.724 321.71L134.646 319.297C134.081 317.962 133.157 316.268 132.592 315.549C131.617 314.317 131.566 313.187 131.617 272.318V230.319ZM38.5316 239.561C38.6343 240.845 38.6343 243.001 38.5316 244.439C38.4289 245.825 38.3262 244.798 38.3262 242.128C38.3262 239.458 38.4289 238.278 38.5316 239.561ZM38.5316 250.343C38.6343 251.627 38.6343 253.783 38.5316 255.221C38.4289 256.607 38.3262 255.58 38.3262 252.91C38.3262 250.241 38.4289 249.06 38.5316 250.343ZM38.5316 261.382C38.6343 262.768 38.6343 264.873 38.5316 266.003C38.4289 267.132 38.3262 266.003 38.3262 263.436C38.3262 260.869 38.4289 259.944 38.5316 261.382ZM38.5316 271.394C38.6343 272.677 38.6343 274.834 38.5316 276.272C38.4289 277.658 38.3262 276.631 38.3262 273.961C38.3262 271.291 38.4289 270.11 38.5316 271.394ZM109.283 269.597C117.087 269.751 123.299 270.059 125.199 270.47C126.945 270.829 128.742 271.497 129.204 271.907C130.077 272.626 130.128 274.166 130.025 310.672L128.126 310.261C127.047 310.055 124.223 309.645 121.862 309.388C119.449 309.131 112.261 308.875 105.945 308.875C99.5787 308.926 92.7501 309.131 90.799 309.388C88.7966 309.645 86.7943 309.953 86.2808 310.107C85.4593 310.415 85.408 309.285 85.408 291.931C85.408 280.636 85.6134 273.037 85.9214 272.421C86.1781 271.856 87.051 271.137 87.8211 270.829C88.5913 270.521 90.8504 270.059 92.8528 269.854C94.8038 269.597 102.197 269.494 109.283 269.597ZM169.354 279.044L171.665 279.403C172.897 279.609 174.026 279.763 174.078 279.814C174.129 279.866 174.232 280.841 174.335 282.022C174.386 283.254 174.335 284.178 174.232 284.178C174.078 284.127 172.897 282.998 171.665 281.56L169.354 279.044ZM46.0277 279.66L40.9961 284.846L40.842 282.638C40.7394 281.252 40.9447 280.276 41.3555 280.02C41.7149 279.814 42.8958 279.66 46.0277 279.66ZM38.5316 281.457C38.6343 282.279 38.6343 283.922 38.5316 285.051C38.4289 286.181 38.3262 285.462 38.3262 283.511C38.3262 281.509 38.4289 280.584 38.5316 281.457ZM105.278 311.031C112.62 310.98 119.911 311.236 122.991 311.596C125.866 311.955 128.536 312.52 128.998 312.931C129.666 313.444 129.152 313.495 126.226 313.187C124.223 312.931 115.546 312.777 106.972 312.777C98.3465 312.777 90.0802 312.931 88.5913 313.136C86.9483 313.393 85.9214 313.341 85.9728 313.033C86.0241 312.777 86.8969 312.315 87.9238 312.058C88.9507 311.75 90.4396 311.442 91.3125 311.339C92.134 311.236 98.4492 311.082 105.278 311.031ZM105.175 314.112C112.517 314.06 120.835 314.266 123.659 314.574C128.177 315.036 128.947 315.292 130.179 316.525C131.001 317.243 131.617 318.065 131.617 318.27C131.617 318.476 129.306 318.681 121.348 318.681L115.495 330.233L116.625 341.529C117.241 347.741 117.652 352.824 117.6 352.876C117.549 352.927 116.265 353.081 114.725 353.132C113.236 353.235 111.901 353.132 111.798 352.927C111.696 352.722 111.49 348.357 111.388 343.172C111.285 337.883 110.823 331.774 110.361 329.052C109.899 326.434 109.231 323.713 108.872 322.994C108.461 322.172 107.845 321.71 107.075 321.71C106.459 321.762 105.586 322.275 105.175 322.891C104.816 323.559 104.097 325.92 103.635 328.18C103.07 330.849 102.711 335.778 102.3 352.824L99.014 352.927C97.1656 353.03 95.6766 352.927 95.6766 352.824C95.6766 352.67 95.882 350.873 96.1901 348.82C96.4981 346.766 96.8575 344.404 96.9602 343.583C97.0629 342.71 97.5763 339.218 99.014 329.566L97.4737 326.28C96.6008 324.483 95.4199 322.07 93.6229 318.681H88.4886C85.408 318.681 83.3543 318.476 83.3543 318.168C83.3543 317.86 83.8677 317.089 84.4838 316.422C85.254 315.6 86.5375 315.087 88.2319 314.83C89.6181 314.625 91.0044 314.42 91.3125 314.317C91.5692 314.214 97.8331 314.112 105.175 314.112ZM82.3274 320.221H92.8528L97.2683 329.72L96.7035 334.598C96.3441 337.267 95.7793 341.323 95.4199 343.583C95.0605 345.842 94.5984 348.768 94.4444 350.103C94.1877 352.003 93.8796 352.67 92.9554 352.978C92.3393 353.235 90.8504 354.929 89.6695 356.726C88.5399 358.523 86.9996 361.039 85.0486 364.633L75.396 364.941L75.7555 356.316C75.9608 351.541 76.5256 344.917 76.9877 341.529C77.3984 338.14 78.4253 332.8 79.2468 329.72C80.0169 326.588 81.0438 323.199 81.5059 322.121L82.3274 320.221ZM122.375 320.221H132.644L133.414 322.018C133.825 322.994 134.543 325.51 134.954 327.563C135.416 329.617 136.135 333.673 136.546 336.651C136.957 339.629 137.47 347.074 138.035 364.325L128.536 364.633L127.869 363.093C127.561 362.272 126.175 359.91 124.788 357.856C123.094 355.237 121.913 353.954 120.835 353.595C119.962 353.338 119.295 352.927 119.295 352.722C119.295 352.516 118.781 347.485 117.087 330.747L122.375 320.221ZM106.972 323.302C107.229 323.302 107.691 324.175 107.999 325.253C108.256 326.28 108.769 328.796 109.077 330.747C109.385 332.749 109.591 339.424 109.591 345.636C109.591 351.849 109.437 359.602 109.283 362.836C109.077 366.071 108.718 371.411 108.461 374.645C108.153 377.88 107.794 380.652 107.64 380.806C107.537 380.96 107.486 373.156 107.588 363.504C107.64 353.8 107.537 345.893 107.332 345.893C107.126 345.893 106.972 347.536 106.972 349.487C106.972 351.489 106.818 353.338 106.715 353.595C106.561 353.903 106.407 360.526 106.356 368.381C106.356 377.007 106.151 381.679 105.894 380.293C105.689 379.009 105.329 375.005 105.124 371.308C104.918 367.663 104.61 361.963 104.456 358.729C104.251 355.494 104.148 348.666 104.2 343.583C104.251 338.5 104.559 332.595 104.867 330.49C105.175 328.385 105.689 325.92 105.997 324.996C106.253 324.072 106.715 323.302 106.972 323.302ZM13.3734 329.72C13.8868 329.823 21.3829 330.079 45.8737 330.747V343.583L40.0719 343.223C36.8886 342.966 29.7005 342.453 24.0528 341.991C18.405 341.529 13.3734 340.964 12.86 340.707C12.3979 340.451 11.6791 339.372 11.371 338.346C10.9089 336.754 10.9603 335.727 11.6277 332.954C12.3465 330.233 12.6546 329.566 13.3734 329.72ZM200.879 329.617C203.497 329.463 203.497 329.463 204.062 331.414C204.422 332.441 204.627 334.495 204.627 335.881C204.576 337.319 204.165 338.962 203.754 339.629C203.343 340.245 202.522 341.015 201.957 341.272C201.392 341.58 194.05 342.248 185.63 342.812C177.261 343.377 170.176 343.839 169.97 343.839C169.765 343.839 169.611 340.964 169.611 331.003L170.997 330.952C171.767 330.952 173.102 330.849 173.975 330.798C174.797 330.695 180.598 330.49 186.811 330.233C193.023 330.028 198.106 329.874 198.158 329.823C198.209 329.771 199.441 329.669 200.879 329.617ZM63.7925 331.363C70.4671 331.722 75.9608 332.082 76.0122 332.133C76.1149 332.236 75.7041 335.316 74.2665 345.636L71.7507 345.585C70.3644 345.585 67.9513 345.431 66.411 345.226C64.8193 345.072 60.5578 344.661 56.9125 344.353C53.2158 343.993 50.1865 343.737 50.0838 343.685C50.0325 343.634 49.9811 341.169 49.9298 338.192C49.8785 335.214 49.8271 332.441 49.7758 331.928C49.7244 331.466 50.1352 331.003 50.6999 330.901C51.2134 330.849 57.1179 331.055 63.7925 331.363ZM47.9274 331.003C48.2355 331.003 48.4408 333.673 48.4408 337.935C48.4408 342.248 48.2355 344.866 47.9274 344.866C47.568 344.866 47.414 342.248 47.414 337.935C47.414 333.673 47.568 331.003 47.9274 331.003ZM165.658 331.26L165.709 337.37C165.709 340.707 165.606 343.634 165.503 343.839C165.349 344.045 160.626 344.507 154.978 344.866C149.33 345.174 143.529 345.534 139.575 345.739L138.754 339.013C138.343 335.316 137.983 332.236 137.983 332.184C137.983 332.133 143.323 331.928 149.844 331.774C156.313 331.568 161.755 331.312 161.858 331.158C162.012 331.055 162.885 331.055 165.658 331.26ZM41.7662 346.92H55.6289C63.2277 346.92 69.5429 347.125 69.6456 347.331C69.7483 347.536 69.7483 348.666 69.4916 352.054H41.7662V346.92ZM145.48 346.92H173.205V351.541H145.48V346.92ZM55.4235 353.954C62.4576 354.057 68.4647 354.108 68.8241 354.108C69.2349 354.108 69.4916 354.981 69.4916 359.242H42.0229V356.829C42.0229 355.494 42.177 354.262 42.331 354.108C42.5364 353.954 48.4408 353.903 55.4235 353.954ZM145.48 353.595H172.948L172.794 358.986L145.48 359.242V353.595ZM102.659 354.673C102.711 354.827 102.865 357.907 103.275 368.227L101.376 368.587C100.349 368.741 99.1166 369.049 98.6032 369.203C97.8844 369.46 97.7304 369.254 97.7304 368.125C97.7304 367.354 97.9871 365.763 98.2952 364.633C98.6032 363.504 99.168 361.758 99.5787 360.783C100.041 359.807 100.862 358.01 101.427 356.726C102.043 355.494 102.557 354.57 102.659 354.673ZM120.321 354.621L122.118 356.829C123.094 358.01 124.84 360.731 125.918 362.836C126.996 364.941 128.28 368.176 128.69 370.024C129.152 371.873 129.512 373.618 129.563 373.875C129.563 374.183 127.407 374.337 123.761 374.234C119.243 374.132 117.189 374.286 114.16 375.107C112.004 375.672 110.155 376.031 110.053 375.929C109.899 375.775 109.95 375.364 110.155 374.902C110.361 374.491 111.08 374.132 111.696 374.08C112.363 374.08 113.647 373.772 114.674 373.413C115.649 373.054 116.727 372.232 117.035 371.513C117.498 370.589 117.446 369.562 116.933 367.098C116.522 365.301 115.392 361.861 114.417 359.396C113.39 356.932 112.569 354.827 112.62 354.775C112.62 354.673 114.314 354.621 120.321 354.621ZM100.554 355.186L98.6032 360.577C97.1143 364.685 96.7035 366.687 96.7035 372.592L98.8599 373.362C100.092 373.772 101.632 374.183 102.351 374.234C103.224 374.337 103.635 374.748 103.738 375.569C103.892 376.648 103.789 376.699 101.941 376.186C100.914 375.877 98.2952 375.313 96.1901 374.851C93.5202 374.337 91.2098 374.183 88.7453 374.44C86.7429 374.594 84.7919 374.902 84.4325 375.107C83.8164 375.364 83.765 375.005 84.0731 373.105C84.2784 371.821 85.0486 369.306 85.716 367.457C86.4349 365.609 87.9238 362.528 89.0534 360.526C90.2343 358.575 91.5178 356.521 91.9799 356.059C92.5447 355.34 93.5202 355.135 100.554 355.186ZM111.182 354.878L112.158 356.675C112.671 357.651 113.801 360.629 114.622 363.247C115.495 365.866 116.214 368.433 116.214 368.997C116.214 369.819 116.009 369.922 115.29 369.614C114.828 369.357 113.544 368.997 110.566 368.484V365.301C110.566 363.504 110.72 360.474 110.874 358.472L111.182 354.878ZM172.897 361.039V365.301C172.897 369.151 172.846 369.511 171.87 369.562C171.305 369.614 165.195 369.614 158.264 369.614C151.384 369.562 145.685 369.511 145.634 369.408C145.582 369.357 145.48 367.509 145.428 365.403C145.428 363.298 145.377 361.399 145.377 361.193C145.377 360.988 151.589 360.885 172.897 361.039ZM41.9716 361.296H69.4402V370.024H41.9716V361.296ZM102.197 369.562C103.173 369.511 103.327 369.768 103.327 371.308C103.327 372.848 103.173 373.105 102.197 373.105C101.53 373.105 100.298 372.9 99.3734 372.592C98.4492 372.335 97.6277 371.77 97.5763 371.308C97.525 370.846 98.1411 370.384 99.2707 370.076C100.246 369.819 101.53 369.614 102.197 369.562ZM111.49 369.511C111.952 369.511 113.082 369.716 114.006 370.024C114.93 370.332 115.649 370.897 115.649 371.308C115.649 371.719 114.93 372.335 114.006 372.592C113.082 372.9 111.798 373.105 111.182 373.105C110.361 373.105 110.001 372.797 110.001 372.078C110.001 371.513 110.155 370.692 110.309 370.281C110.464 369.87 111.028 369.511 111.49 369.511ZM158.778 371.565V373.618C158.778 374.748 158.572 375.672 158.264 375.672C158.007 375.672 157.751 376.031 157.751 376.442C157.751 376.853 158.007 377.212 158.264 377.212C158.572 377.212 158.778 378.137 158.778 379.266C158.778 380.396 158.572 381.32 158.264 381.32C158.007 381.32 157.751 381.679 157.751 382.09C157.751 382.501 158.007 382.86 158.264 382.86C158.572 382.86 158.778 383.682 158.778 386.454H138.24L138.548 384.554C138.754 383.476 139.113 381.782 139.37 380.806C139.678 379.831 140.499 377.983 141.218 376.699C141.937 375.415 143.066 373.772 143.837 373.002C145.12 371.565 145.172 371.565 158.778 371.565ZM159.291 371.565H174.437L175.618 373.259C176.234 374.183 177.312 376.288 178.031 377.983C178.699 379.677 179.469 382.295 180.085 386.506L159.291 386.454V381.577C159.291 378.496 159.496 376.802 159.804 376.956C160.112 377.11 160.318 376.853 160.318 376.442C160.318 376.031 160.112 375.775 159.804 375.929C159.496 376.083 159.291 375.261 159.291 373.875V371.565ZM40.7394 372.078H54.9101L54.8074 386.968H34.7835L35.1943 384.041C35.451 382.398 36.2211 379.78 36.8886 378.239C37.6074 376.699 38.7883 374.697 39.4558 373.772L40.7394 372.078ZM71.0319 372.078L72.5722 373.978C73.3937 375.056 74.4205 376.956 74.8826 378.239C75.2934 379.471 75.8068 381.885 76.4229 386.454L74.3692 386.506C73.2396 386.557 68.6701 386.66 64.2032 386.762C59.7364 386.865 56.091 386.762 56.091 386.557C56.091 386.352 55.9883 385.325 55.8343 384.246C55.6289 382.706 55.7316 382.398 56.399 382.603C56.8098 382.757 57.1692 382.552 57.1692 382.09C57.1692 381.628 56.9125 381.269 56.6044 381.166C56.2964 381.115 55.937 380.293 55.8343 379.369C55.6802 378.239 55.8343 377.623 56.399 377.469C56.8098 377.315 57.1692 376.853 57.1692 376.442C57.135 375.929 56.8269 375.775 56.245 375.98C55.5262 376.237 55.4235 376.083 55.7316 375.056C55.937 374.389 56.091 373.464 56.091 372.951C56.1423 372.129 56.8098 372.078 71.0319 372.078ZM122.118 374.697C122.375 374.645 124.121 374.902 125.969 375.21C127.869 375.518 129.05 375.929 128.793 376.186C128.485 376.391 127.099 376.802 125.712 377.058C124.275 377.315 121.143 377.572 118.781 377.674C116.368 377.726 113.801 377.572 113.133 377.315C111.85 376.853 111.901 376.802 113.903 376.186C115.033 375.775 117.189 375.313 118.781 375.107C120.321 374.953 121.81 374.748 122.118 374.697ZM92.3393 375.415C94.5984 375.569 97.5763 376.031 99.014 376.494C101.273 377.212 101.427 377.366 100.554 377.829C99.8868 378.188 97.1656 378.291 93.6229 378.085C90.2343 377.931 86.7943 377.52 85.6647 377.058C83.7137 376.34 83.6623 376.288 84.8946 375.98C85.562 375.826 86.6402 375.569 87.205 375.467C87.7698 375.313 90.0802 375.313 92.3393 375.415ZM148.149 388.508L170.381 388.457L172.024 392.307C172.948 394.464 173.718 396.415 173.718 396.723C173.718 397.031 169.2 397.236 161.242 397.236C154.413 397.236 147.944 397.39 146.866 397.596C145.428 397.904 144.915 397.801 144.915 397.339C144.915 396.98 145.274 395.953 145.685 395.029C146.044 394.104 146.763 392.256 147.277 390.921L148.149 388.508ZM44.3847 389.021H67.1811L68.6701 393.026C69.5429 395.183 70.3131 397.185 70.3644 397.39C70.4158 397.596 63.8952 397.75 41.2528 397.75L42.2796 394.823C42.8958 393.18 43.6146 391.229 43.8713 390.459L44.3847 389.021Z" fill="#FEFEFE"/>
<path d="M42.177 122.344C42.1256 119.931 42.2797 119.315 43.1011 118.904C43.6146 118.596 44.3847 118.34 44.7441 118.34C45.0522 118.34 45.8223 118.545 46.3871 118.853C47.2599 119.264 47.414 119.88 47.414 125.271H42.2797L42.177 122.344Z" fill="#464646"/>
<path d="M166.941 122.344C166.89 120.188 167.044 119.367 167.609 119.212C167.968 119.058 168.841 118.904 169.508 118.904C170.124 118.853 170.997 119.212 171.408 119.623C171.87 120.085 172.178 121.369 172.178 125.271H167.044L166.941 122.344Z" fill="#464646"/>
<path d="M100.965 155.204C101.068 152.637 101.119 152.586 103.121 151.918C104.251 151.61 105.432 151.302 105.791 151.251C106.253 151.199 106.356 152.021 106.151 154.177C105.997 155.769 105.791 157.258 105.637 157.515C105.535 157.72 104.405 157.874 100.811 157.874L100.965 155.204Z" fill="#464646"/>
<path d="M109.18 155.82C109.128 155.408 108.974 154.177 108.821 153.15C108.564 151.507 108.666 151.199 109.385 151.199C109.899 151.199 111.285 151.61 112.517 152.124C114.674 152.996 114.725 153.048 114.674 157.874H112.363C111.08 157.874 109.899 157.617 109.693 157.258C109.488 156.898 109.283 156.231 109.18 155.82L109.18 155.82Z" fill="#464646"/>
<path d="M92.3393 157.104C93.0581 156.385 94.8552 155.255 96.3441 154.537C97.7817 153.818 99.168 153.253 99.4247 153.253C99.6301 153.253 99.9381 153.612 100.092 154.023C100.298 154.434 100.298 155.564 100.144 156.488C99.9381 157.669 99.3734 158.336 98.2952 158.901C97.1656 159.466 96.6522 160.133 96.4468 161.365C96.1901 162.957 96.1387 163.008 91.0558 163.008V160.698C91.0558 158.901 91.3638 158.079 92.3393 157.104Z" fill="#464646"/>
<path d="M116.984 159.158C115.29 158.233 115.136 157.977 115.238 155.872L115.341 153.664L117.189 154.023C118.216 154.229 119.757 154.742 120.578 155.153C121.4 155.615 122.529 156.334 122.991 156.796C123.505 157.258 123.761 157.771 123.659 158.028C123.505 158.233 123.607 158.49 123.915 158.644C124.224 158.798 124.429 159.928 124.429 163.522H122.375C121.246 163.522 119.962 163.419 119.551 163.265C119.089 163.111 118.781 162.392 118.781 161.622C118.781 160.492 118.37 159.928 116.984 159.158Z" fill="#464646"/>
<path d="M100.708 164.343C100.657 163.419 100.811 162.495 101.068 162.289C101.273 162.084 102.505 161.93 105.945 161.93V166.038H103.378C100.811 166.038 100.811 166.038 100.708 164.343Z" fill="#464646"/>
<path d="M109.539 166.038V163.984V161.93H114.674V166.038H109.539Z" fill="#464646"/>
<path d="M43.2038 122.036C43.1524 120.958 43.3578 119.88 43.5632 119.675C43.8199 119.469 44.4874 119.367 45.1035 119.469C45.925 119.572 46.1303 120.034 46.2844 121.831C46.3871 123.936 46.3357 123.987 44.8468 123.987C43.4092 123.987 43.3065 123.833 43.2038 122.036Z" fill="#FEFEFE"/>
<path d="M168.841 124.244C168.225 124.45 168.071 124.039 168.071 122.19C168.071 119.983 168.122 119.88 169.611 119.88C171.049 119.88 171.151 119.983 171.151 121.934C171.151 123.423 170.946 123.987 170.381 123.987C169.97 123.987 169.252 124.09 168.841 124.244Z" fill="#FEFEFE"/>
<path d="M101.222 155.307C101.17 153.972 101.427 153.612 102.916 152.996C103.892 152.586 104.816 152.278 105.072 152.226C105.278 152.226 105.432 152.74 105.432 153.407C105.432 154.023 105.329 155.05 105.175 155.718C104.97 156.642 104.559 156.847 103.121 156.847C101.478 156.847 101.324 156.693 101.222 155.307Z" fill="#FEFEFE"/>
<path d="M110.361 156.488C110.258 156.231 110.053 155.204 109.847 154.177C109.642 153.099 109.591 152.226 109.745 152.226C109.95 152.226 110.874 152.586 111.85 152.996C113.339 153.612 113.647 154.023 113.647 155.307C113.647 156.693 113.493 156.847 112.106 156.847C111.285 156.847 110.463 156.693 110.361 156.488Z" fill="#FEFEFE"/>
<path d="M92.8527 157.566L95.4199 156.18C96.8575 155.461 98.2438 154.845 98.6032 154.793C98.9626 154.793 99.1679 155.409 99.1166 156.18C99.0653 157.155 98.6032 157.72 97.7303 158.079C96.9088 158.387 95.7793 158.387 92.8527 157.566Z" fill="#FEFEFE"/>
<path d="M117.497 158.285C116.573 157.823 116.214 157.207 116.214 156.231C116.214 155.409 116.419 154.793 116.727 154.793C117.035 154.793 118.268 155.255 119.551 155.82C120.835 156.385 121.964 157.052 122.118 157.361C122.272 157.669 121.554 158.079 120.578 158.387C119.295 158.747 118.422 158.747 117.497 158.285Z" fill="#FEFEFE"/>
<path d="M93.6229 162.495C92.3393 162.495 92.0826 162.289 92.0826 161.211C92.0826 160.338 92.3906 159.928 93.0068 159.928C93.4688 159.928 94.3417 160.184 94.8551 160.544C95.3685 160.903 95.6766 161.519 95.5226 161.879C95.3172 162.187 94.4444 162.495 93.6229 162.495Z" fill="#FEFEFE"/>
<path d="M119.962 161.622C119.859 161.263 120.321 160.749 120.989 160.492C121.605 160.184 122.426 159.979 122.786 159.979C123.094 159.928 123.402 160.492 123.402 161.211C123.402 162.341 123.197 162.495 121.759 162.392C120.886 162.289 120.065 161.93 119.962 161.622Z" fill="#FEFEFE"/>
<path d="M103.635 165.575C102.043 165.575 101.838 165.421 101.838 164.292C101.838 163.162 102.043 163.008 103.635 163.008C105.226 163.008 105.432 163.162 105.432 164.292C105.432 165.421 105.226 165.575 103.635 165.575Z" fill="#FEFEFE"/>
<path d="M112.26 165.473C110.772 165.575 110.566 165.421 110.566 164.292C110.566 163.162 110.772 163.008 112.363 163.008C113.903 163.008 114.16 163.162 114.057 164.189C113.955 165.062 113.544 165.37 112.26 165.473Z" fill="#FEFEFE"/>
<defs>
<linearGradient id="paint0_linear_1_285" x1="58.25" y1="397.5" x2="58.25" y2="618" gradientUnits="userSpaceOnUse">
<stop stop-color="#FB5352"/>
<stop offset="1"/>
</linearGradient>
<linearGradient id="paint1_linear_1_285" x1="162.25" y1="397.5" x2="162.25" y2="618" gradientUnits="userSpaceOnUse">
<stop stop-color="#FB5352"/>
<stop offset="1"/>
</linearGradient>
</defs>
</svg>
